<svg id="a63615e4-87ec-4a61-b152-0d2b4c64ff74" data-name="Layer 3" xmlns="http://www.w3.org/2000/svg" viewBox="0 0 795.91 192.09"><title>census-logo-wordmark</title><g id="ba558dde-fea4-4b6a-a28b-c7f58af4e26d" data-name="RqjVZY"><path d="M693.43,74.76a28.49,28.49,0,0,1,11-5.94c9.05-2.4,16.16.49,21.9,7.53,2.41,3,3.94,6.44,5.69,9.77,4.15,7.91,8.16,15.88,12.24,23.82.3.59.42,1.57,1.15,1.58,1,0,.93-1.08,1.17-1.75,1.4-4,2.91-7.9,4.05-11.93,1.51-5.34,1.69-9.29-4.19-13.14-4.42-2.89-4.57-7.88-.93-11.73a14.66,14.66,0,0,1,5.6-3.57c4.55-1.72,9.22-2.72,14.09-1.41a9.75,9.75,0,0,1,7.26,9c.63,8.46-2.19,16.13-5.75,23.49-9.78,20.24-19.79,40.39-31.17,59.79-4.87,8.31-10.47,16.12-18.09,22.27-9.66,7.8-21.5,6.27-27.56-3.74-2.64-4.36-3.29-9.05-.74-13.71s6.76-6.16,11.63-6.33,9.44,0,14.16-.06c8.43-.13,15.66-10.61,12.48-18.39-5-12.24-11.32-23.88-17.08-35.77a119.62,119.62,0,0,0-5.75-11.21,10.39,10.39,0,0,0-6.3-4.94c-.58-.15-1.15-.37-1.72-.55-5-1.59-6.35-3.6-5.91-9a27.34,27.34,0,0,1-9.79,1.58c-1.34,0-1.69,1-1.68,2.13.24,14.67-.61,29.35.53,44a11.52,11.52,0,0,0,1.42,4.38c1,2,3,2.46,5.6,1.54,3.88-1.34,5.59-1.12,6.91.89,1.43,2.18,1.07,5.38-1.31,7.79-6.75,6.83-15.18,8.6-24.38,7.5a17.3,17.3,0,0,1-10.81-5.45,18.08,18.08,0,0,1-5.18-12.54c-.16-11.5-.06-23-.15-34.51,0-4.37-.35-8.74-.5-13.11-.07-2.18-.94-3.36-3.26-3.84-4.17-.85-5.6-4.82-3.15-8.3a11,11,0,0,1,2.31-2.41c6.09-4.51,8.71-10.91,9.73-18.08s-2.33-13.37-8.17-15c-10.52-2.86-21.58,2.18-23,15.06-1.05,9.19,2.06,17.05,8.39,23.7,2.59,2.71,5.61,5,6.8,8.88,1.35,4.38.57,8.15-2.74,11.31a15.58,15.58,0,0,1-12.21,4.45,6.52,6.52,0,0,1-6.56-6.61c-.13-2.65.13-5.32,0-8a6.3,6.3,0,0,0-6.11-6.42c-2.54-.2-5,.31-6.29,2.65a8.86,8.86,0,0,0,.13,8.88c2.18,4,6,6,9.83,8,5.92,3.11,12.18,5.64,17.61,9.61,8.09,5.92,12,13.8,10,23.9-1.27,6.47-5.64,10.86-11.18,13.75-14.41,7.52-29.25,8.17-44,1.21a19.16,19.16,0,0,1-10.79-12.16c-1.84-6.29-.26-11.29,5.16-15.06a16.59,16.59,0,0,1,10.37-3.27c3.76.17,6.08,1.74,7.41,5.26a19.1,19.1,0,0,1,.94,6.84,19.63,19.63,0,0,0,2.39,9.64c1.93,3.46,5.26,5,8.6,4.13,2.86-.76,4.88-3.93,5-7.65.12-5-2.48-8.59-6.43-11-6-3.7-12.28-6.88-18.28-10.54-5.07-3.11-9.18-7.21-10.94-13.15-3-10.1,1.1-19.79,10.38-24.91,5.38-3,11.22-4.23,17.22-4.79,2.34-.21,2.73-.83,2.07-3-2.22-7.25-2.47-14.5.34-21.7,4.26-10.94,12.9-16.38,23.84-18.57a45.36,45.36,0,0,1,21.65.74c10.37,3,16.72,9.73,19.31,20.07,1.64,6.54,1.61,13.26,1.62,20,0,3.17.1,3.23,3.2,2.34l.74-.23C689.18,66.74,691.89,68.23,693.43,74.76Z" style="fill:#010101"/><path d="M272.24,105.05c-3.52,0-7,0-10.55,0-3.08,0-4.35,1-4.6,4a81.17,81.17,0,0,0,.38,19.76,9,9,0,0,0,4.4,6.38c2.2,1.32,3.8,3.1,3.49,5.82-.32,2.92-2.22,4.73-4.82,5.87-3.94,1.71-8.19,1.91-12.36,2.19-7.8.51-15.6.43-23.2-1.86a8.09,8.09,0,0,1-4.83-3.61c-1.5-2.56-1.47-5.63,1-7.2,5.94-3.84,6.62-9.68,6.66-15.79.09-16.57,0-33.13,0-49.7a47.13,47.13,0,0,0-.44-6.16,11.9,11.9,0,0,0-3.44-7.31c-1-1-2-1.87-2.91-2.91-3-3.48-2.12-7.23,2.1-9.13,3.75-1.7,7.76-2,11.76-2.55A56.55,56.55,0,0,1,261,45.3c5.29,1.86,6.13,6.7,1.66,10.06s-5.71,7.55-5.78,12.55q-.12,8.24,0,16.48c.06,4.06,1.37,5.51,5.41,5.6q10.17.21,20.34,0c4-.07,5.39-1.37,5.46-5.31.13-6.51.55-13-.48-19.53a14.66,14.66,0,0,0-4.62-8.9c-5.52-5.11-4.46-9.71,2.79-11.66a65.88,65.88,0,0,1,32.06-.48,23.41,23.41,0,0,1,3.89,1.31c4.15,1.76,5.26,6.84,1.64,9.52C318,58.88,317,64.1,317,70.11c.08,17.6,0,35.19,0,52.79,0,5.28,1.33,9.83,5.83,13.33,4.34,3.37,3.13,9-2,10.89-4.08,1.53-8.4,1.8-12.66,2-7.72.44-15.44.4-23-1.91a9.08,9.08,0,0,1-3.73-2.2c-2.7-2.66-3-6.67.09-8.77,5.52-3.79,6.25-9.34,6.55-15.15.18-3.43.14-6.87,0-10.3-.19-4.45-1.66-5.76-6.08-5.79-3.26,0-6.52,0-9.79,0Z" style="fill:#010101"/><path d="M441.44,83c1.83-1.89,3.57-3.89,5.52-5.64,8.87-8,19.23-10.8,30.8-8,9.89,2.37,14.77,10.17,15.32,20.72.47,9.17.16,18.37.15,27.55a38.81,38.81,0,0,0,.65,6.64,7.9,7.9,0,0,0,4.78,6.23c4.45,2.13,5.13,6.31,1.67,10a25.16,25.16,0,0,1-9.35,5.74,35,35,0,0,1-14.9,2.15c-6.47-.33-10.61-4.33-10.66-10.83-.1-12.53-.07-25.06-.06-37.6a20.3,20.3,0,0,0-.74-5.59,6.44,6.44,0,0,0-7-5.12c-8.24.29-16.9,9.06-16.84,17.28.05,6.69-.44,13.38.42,20.06a11.49,11.49,0,0,0,5.05,8.54c4.31,2.94,4,8.38-.52,10.89a20.5,20.5,0,0,1-9.68,2.31c-5.84.1-11.68.06-17.51,0a22.21,22.21,0,0,1-8.77-1.85c-5.44-2.36-6.38-7.78-1.75-11.41,3.78-3,5.2-6.78,5.27-11.2q.23-14.55,0-29.09c-.05-3.9-1.37-7.09-5.6-8.61-3.66-1.32-4.46-4.91-2.09-8.26,3.23-4.56,8-7,13.17-8.48a27.29,27.29,0,0,1,13.5-.45c5.11,1.09,8.05,4.49,8.35,9.69.08,1.35.13,2.71.19,4.07Z" style="fill:#010101"/><path d="M365.11,68c10.22-.2,19.53,2.39,27.43,9.11,6.18,5.24,9.79,12.07,11.66,19.84a44.85,44.85,0,0,1-2.26,29c-4.55,10.61-12.49,17.43-23.6,20.48-11.48,3.16-22.82,2.85-33.64-2.32-11.65-5.56-17.59-15.33-19.45-27.86a50,50,0,0,1,1.63-23.39c5.21-15.74,18-23.71,34.12-24.82C362.36,67.92,363.74,68,365.11,68Zm12.19,49.93c.1-5.16-1-12.1-2.86-18.88-1.7-6.22-3.85-12.29-8.09-17.35-3.77-4.48-9.09-3.73-11.48,1.59-2.06,4.6-2.23,9.5-2.12,14.37a79.19,79.19,0,0,0,4.48,24.42,37.75,37.75,0,0,0,6.41,12.24c4.09,4.87,9.06,4.15,11.65-1.61C377.13,128.61,377.27,124.24,377.3,117.93Z" style="fill:#010101"/><path d="M552.41,129.8c6.57.42,12.31-1.65,17.89-4.53,3.46-1.78,6.27-.54,6.62,2.68.17,1.5-.65,2.61-1.41,3.76-5.45,8.14-13.33,12.77-22.57,15.14a43.35,43.35,0,0,1-35.08-5.43c-10-6.26-15.15-15.57-16.81-27-2.56-17.78,5.3-36.28,23.59-43.56,11.57-4.61,23.45-5,35.18-.57,10.34,3.92,15.82,13.28,14.69,24.29-.68,6.58-6.14,11.72-14,13.54-5.86,1.35-11.91,1.47-17.75,2.91-3.23.81-6.47,1.8-7.22,5.66a9.61,9.61,0,0,0,4.91,10.7A20,20,0,0,0,552.41,129.8Zm-25.17-20c2.41-6,7.83-7.45,13.17-9.14,3.26-1,6.61-1.87,9.58-3.66,4.51-2.71,5.52-6.94,5-11.77-.37-3.79-2.57-6.24-6-7.69-8-3.43-18,.63-21.64,8.67-2.89,6.45-2.85,13.12-1.7,19.89C525.92,107.26,525.88,108.65,527.24,109.77Z" style="fill:#010101"/></g><path d="M121.59,52.29Z" style="fill:none"/><path d="M117.86,39.13c0-.39.12-.76.19-1.09C118,38.37,117.91,38.74,117.86,39.13Z" style="fill:none"/><path d="M117.66,41.78a17.55,17.55,0,0,1,.2-2.65A17.55,17.55,0,0,0,117.66,41.78Z" style="fill:none"/><path d="M120.75,51.28a15.19,15.19,0,0,1-3.09-9.49A15.19,15.19,0,0,0,120.75,51.28Z" style="fill:none"/><path d="M116.16,65.63h0l.29.06Z" style="fill:none"/><polygon points="126.36 55.98 126.36 55.98 126.36 55.98 126.36 55.98" style="fill:none"/><path d="M82.54,66.65h0l0,0Z" style="fill:none"/><path d="M85,155.55a14,14,0,0,1-1,5.16c12.15,6,28.89,9.17,48.48-.59a13.93,13.93,0,0,1,21.14-16A54,54,0,0,0,161,127.52a44.3,44.3,0,0,1-21.61-27.75,52.9,52.9,0,0,1-1.65-9l-.18.11c-1.27,1.6-22,26.22-83.53,23.62a27.44,27.44,0,0,1,0-3.58c-.06,1.08-.11,2.16-.11,3.26a54,54,0,0,0,9.08,30,13.93,13.93,0,0,1,22,11.36Zm53.8-35.81a6.59,6.59,0,1,1-6.59,6.58A6.59,6.59,0,0,1,138.81,119.74ZM91.69,139.08a3,3,0,0,1,4.26.3c.07.08,5.75,6.45,12.86,6.45h0c4.1,0,8-2.18,11.74-6.45a3,3,0,0,1,4.57,4c-4.91,5.66-10.4,8.53-16.34,8.54-9.92,0-17.12-8.19-17.43-8.54A3,3,0,0,1,91.69,139.08Zm-15-19.34a6.59,6.59,0,1,1-6.59,6.58A6.59,6.59,0,0,1,76.71,119.74Z" style="fill:#fdcca0"/><path d="M97.17,107.87a128.84,128.84,0,0,1-29,3.41,88.78,88.78,0,0,1-14.12-1,.28.28,0,0,0,0,.09C54.31,110.45,72.2,113.88,97.17,107.87Z" style="fill:#fdcca0"/><path d="M76.71,132.92a6.59,6.59,0,1,0-6.59-6.6A6.6,6.6,0,0,0,76.71,132.92Z" style="fill:#000101"/><path d="M108.81,151.88c5.94,0,11.43-2.88,16.34-8.54a3,3,0,0,0-4.57-4c-3.69,4.27-7.64,6.44-11.74,6.45h0c-7.11,0-12.79-6.37-12.86-6.45a3,3,0,0,0-4.57,4C91.69,143.69,98.89,151.88,108.81,151.88Z" style="fill:#000101"/><path d="M138.81,132.92a6.59,6.59,0,1,0-6.59-6.6A6.6,6.6,0,0,0,138.81,132.92Z" style="fill:#000101"/><path d="M73.26,80c-2.16-.88-3.9-1.7-5.21-2.38h0A41.55,41.55,0,0,0,73.26,80Z" style="fill:#f2862f"/><path d="M61.42,86.62c4.65,1,17.19,2.95,34.44.9-20.42-1.64-29.94-7.09-30.11-7.19A55.65,55.65,0,0,0,61.42,86.62Z" style="fill:#f2862f"/><path d="M148,80c1.66,7.08,5.61,19.09,14.1,26.18a54.12,54.12,0,0,0-12.2-27C149.24,79.47,148.61,79.73,148,80Z" style="fill:#f2862f"/><path d="M143.48,79.29q-5.05,1.84-9.88,3.14c4-1.06,7.38-2.18,9.89-3.09Z" style="fill:#f2862f"/><path d="M148.32,77.4l-.84.35v0l.84-.36Z" style="fill:#f2862f"/><path d="M58.55,92.2a53.94,53.94,0,0,0-3.73,12.1c0,.62-.06,1.23-.06,1.86a83.89,83.89,0,0,0,13.42.91,125.16,125.16,0,0,0,73.63-24.2S139,109.61,161.9,123.2a54,54,0,0,0,.77-9c0-.8,0-1.6-.06-2.39C151.1,104.51,146.06,90.13,144,81.58a106.15,106.15,0,0,1-27.25,6.35C83.65,98.35,59.81,92.52,58.55,92.2Z" style="fill:#f2862f"/><path d="M54,114.48c61.56,2.6,82.26-22,83.53-23.62l.06-.08a136.73,136.73,0,0,1-38.84,16.7l-.06,0-1.55.37c-25,6-42.86,2.58-43.12,2.53,0,.17,0,.33,0,.5A27.44,27.44,0,0,0,54,114.48Z" style="fill:#d8a27d"/><path d="M97.17,107.87l1.55-.37" style="fill:none;stroke:#d8a27d;stroke-linecap:round;stroke-linejoin:round;stroke-width:0px"/><path d="M116.75,87.93A106.15,106.15,0,0,0,144,81.58c-.19-.8-.36-1.56-.51-2.24-2.51.91-5.88,2-9.89,3.09-.58.16-1.15.3-1.72.44l-1.34.33-.11,0c-3.13,1.2-6.19,2.25-9.19,3.18q-2.79.87-5.49,1.6c-29.69,8-51.41,3.67-56.41,2.45-.28.57-.53,1.14-.79,1.72C59.81,92.52,83.65,98.35,116.75,87.93Z" style="fill:#b25226"/><path d="M131.74,155.55a13.83,13.83,0,0,0,.77,4.57,88.51,88.51,0,0,0,19.29-13.38c.64-.86,1.26-1.74,1.85-2.63a13.92,13.92,0,0,0-21.91,11.44Z" style="fill:#f48c9c"/><path d="M84,160.71A13.94,13.94,0,0,0,63,144.19c.12.18.23.36.35.53A67.86,67.86,0,0,0,84,160.71Z" style="fill:#f48c9c"/><path d="M133.49,162.32a54.73,54.73,0,0,0,18.31-15.58,88.51,88.51,0,0,1-19.29,13.38c-19.59,9.76-36.33,6.58-48.48.59a67.86,67.86,0,0,1-20.7-16,54.72,54.72,0,0,0,19.88,17.67,54.19,54.19,0,0,0,50.28-.07Z" style="fill:#d8a27d"/><path d="M62.93,144.23h0" style="fill:none;stroke:#000101;stroke-linecap:round;stroke-linejoin:round;stroke-width:0px"/><path d="M90.36,56a51.65,51.65,0,0,0-7.85,3.85,48.13,48.13,0,0,1,6.16-3C103.47,50,98,36,98,36c-6.46-13.23-21.3-7.69-21.3-7.69C49.74,40.62,40.82,67.5,40.82,67.5c-12.41,39.21,7.88,50.78,7.88,50.78,0-1.16,0-2.27.09-3.39-.06,1.09-.11,2.19-.13,3.32C48.66,118.21,36.87,74.46,90.36,56ZM87.3,35.9a4.72,4.72,0,1,1-4.81,4.72A4.78,4.78,0,0,1,87.3,35.9Z" style="fill:#f9f9fa"/><path d="M125.5,68.57a1.52,1.52,0,0,0-.59-.56A1.93,1.93,0,0,1,125.5,68.57Z" style="fill:#f5ac1f"/><path d="M113.13,74.63a15.28,15.28,0,0,1-4.52.92A11.22,11.22,0,0,0,113.13,74.63Z" style="fill:#f5ac1f"/><path d="M124.41,67.76l-.15-.05.44.18Z" style="fill:#f5ac1f"/><path d="M117,65.79l1.45.31Z" style="fill:#f5ac1f"/><path d="M92.24,69.93a18.34,18.34,0,0,0,2,1.11,77,77,0,0,0,9.32,3.42,11.84,11.84,0,0,0,4.71,1.09,19.54,19.54,0,0,0,2.39-1.78q.48-.4,1-.9l.11-.11a21.36,21.36,0,0,0,2-2.31,14.38,14.38,0,0,0,2.37-4.82,43.1,43.1,0,0,0-7.59-.76,49.84,49.84,0,0,0-12.1,1.77c-2.28.6-3.75,1.12-3.75,1.12l-.43.21a2,2,0,0,0-.26.17C90.86,69,92.24,69.93,92.24,69.93Z" style="fill:#f5ac1f"/><path d="M116.85,73.38l-.14.05c-.59.21-1.21.42-1.87.63l-1.29.4s.51-.14,1.32-.4c.52-.16,1.17-.38,1.89-.62l.14,0c1.72-.59,3.81-1.36,5.59-2.17.61-.28,1.19-.57,1.7-.86-.17.09-.77.4-1.79.85C121.17,71.76,119.33,72.52,116.85,73.38Z" style="fill:#f5ac1f"/><path d="M94.73,59l-.47.41-1.72,1.53c-.66.6-1.33,1.23-2,1.88l-.13.13,0,0-.44.42-.73.71c-.62.61-1.25,1.25-1.88,1.91a29.79,29.79,0,0,1,3.47-1.29,59.6,59.6,0,0,1,17.8-2.56c1.93,0,3.73.09,5.43.23a53.05,53.05,0,0,1,14.85,3.2l.69.29-.61-.26a41.68,41.68,0,0,0-12-2.93,12.38,12.38,0,0,0,.38-2.07v-.05q0-.36.06-.78c0-.16,0-.33,0-.51,0-.39,0-.8-.05-1.22,0-.13,0-.27,0-.41a10.64,10.64,0,0,0-.51-2.19,8.5,8.5,0,0,0-.57-1.28.67.67,0,0,0-.06-.12,58.11,58.11,0,0,0-5.48-3.57,5.51,5.51,0,0,0-4.22,0,68.24,68.24,0,0,0-8.41,5.77l-.27.21C96.82,57.2,95.8,58,94.73,59Zm11.85.87h0Zm-2,.09-.51,0ZM103.55,55a.7.7,0,0,1,.43.26,0,0,0,0,1,0,0c.3.49-.13,1.39-1,2.25l0,0a6.73,6.73,0,0,1-2.59,1.59,3,3,0,0,1-.87.14.71.71,0,0,1-.75-1l0-.12A5.2,5.2,0,0,1,100.59,56a5.09,5.09,0,0,1,.6-.39c.16-.09.31-.18.46-.25A3.18,3.18,0,0,1,103.55,55Z" style="fill:#f8c122"/><path d="M104.61,59.91l-.51,0" style="fill:none;stroke:#f8c122;stroke-linecap:round;stroke-linejoin:round;stroke-width:0px"/><path d="M106.21,59.83h.37" style="fill:none;stroke:#f8c122;stroke-linecap:round;stroke-linejoin:round;stroke-width:0px"/><path d="M68,77.58a34.71,34.71,0,0,0-2.25,2.75h0c.17.1,9.69,5.55,30.11,7.19l2.49-.33q3.09-.42,6.35-1l1-.19.12,0-1,0c-7-.44-20.85-1.82-31.55-5.92a41.55,41.55,0,0,1-5.21-2.38Z" style="fill:#b25226"/><path d="M118.63,35.9a14.85,14.85,0,0,0-.58,2.14c-.07.33-.14.7-.19,1.09a17.55,17.55,0,0,0-.2,2.65h0a15.19,15.19,0,0,0,3.09,9.49c.26.34.53.67.84,1h0A18.67,18.67,0,0,0,126.36,56h0c45.9,15.86,43.73,50.34,42.19,59.79-.21,1.29-.4,2.11-.47,2.36.11-.07.28-.18.5-.34,3.33-2.37,18.33-15.33,7.25-50.36,0,0-8.92-26.88-35.89-39.23C139.94,28.2,125.09,22.66,118.63,35.9Zm10.71-.07a5,5,0,0,1,1.91.38,4.74,4.74,0,0,1,2.91,4.34,4.66,4.66,0,0,1-1.27,3.18,4.85,4.85,0,0,1-3.55,1.54,4.72,4.72,0,1,1,0-9.44Z" style="fill:#f9f9fa"/><path d="M126.36,56l.59.31c.33.18.67.35,1,.51a45.37,45.37,0,0,1,5.19,2.44c-2-1.14-3.74-2-4.93-2.49S126.36,56,126.36,56Z" style="fill:#f9f9fa"/><path d="M167.94,118.21l.12-.07c-.05-2.57-.22-5-.49-7.42C167.8,113.12,167.94,115.61,167.94,118.21Z" style="fill:#f9f9fa"/><path d="M149.88,79.18l-.1-.12-1.38-1.68-.07,0-.84.36c.13.67.3,1.41.49,2.23.63-.27,1.26-.53,1.9-.82Z" style="fill:#b25226"/><line x1="126.36" y1="55.98" x2="126.36" y2="55.98" style="fill:none;stroke:#c1c1c6;stroke-linecap:round;stroke-linejoin:round;stroke-width:0px"/><path d="M167.57,110.72c.27,2.38.44,4.85.49,7.42v.07l0-.08c.07-.25.26-1.07.47-2.36,1.54-9.45,3.71-43.93-42.19-59.79,0,0,.69.24,1.88.77s2.9,1.35,4.93,2.49a69.69,69.69,0,0,1,6.26,3.95c1.15.81,2.34,1.7,3.55,2.67A65.67,65.67,0,0,1,167.57,110.72Z" style="fill:#c1c1c6"/><path d="M54.82,104.3c0,.62-.06,1.23-.06,1.86a83.89,83.89,0,0,0,13.42.91,125.16,125.16,0,0,0,73.63-24.2S139,109.61,161.9,123.2a54,54,0,0,0,.77-9c0-.8,0-1.6-.06-2.39C151.1,104.51,146.06,90.13,144,81.58c-.19-.8-.36-1.56-.51-2.24v0q-5.05,1.84-9.88,3.14c-.58.16-1.15.3-1.72.44l-1.34.33-.11,0c-3.13,1.2-6.19,2.25-9.19,3.18q-2.79.87-5.49,1.6c-29.69,8-51.41,3.67-56.41,2.45-.28.57-.53,1.14-.79,1.72A53.94,53.94,0,0,0,54.82,104.3Z" style="fill:none"/><path d="M139.39,99.77a52.9,52.9,0,0,1-1.65-9l-.18.11.06-.08a136.73,136.73,0,0,1-38.84,16.7l-.06,0-1.55.37a128.84,128.84,0,0,1-29,3.41,88.78,88.78,0,0,1-14.12-1,.28.28,0,0,0,0,.09c0,.17,0,.33,0,.5-.06,1.08-.11,2.16-.11,3.26a54,54,0,0,0,9.08,30c.12.18.23.36.35.53a54.72,54.72,0,0,0,19.88,17.67,54.19,54.19,0,0,0,50.28-.07,54.73,54.73,0,0,0,18.31-15.58c.64-.86,1.26-1.74,1.85-2.63A54,54,0,0,0,161,127.52,44.3,44.3,0,0,1,139.39,99.77Z" style="fill:none"/><path d="M68,77.58a34.71,34.71,0,0,0-2.25,2.75h0a55.65,55.65,0,0,0-4.33,6.29c4.65,1,17.19,2.95,34.44.9l2.49-.33q3.09-.42,6.35-1l1-.19.12,0-1,0c-7-.44-20.85-1.82-31.55-5.92-2.16-.88-3.9-1.7-5.21-2.38h0Z" style="fill:none"/><path d="M149.88,79.18l-.1-.12-1.38-1.68-.07,0h0l-.84.35v0c.13.67.3,1.41.49,2.23,1.66,7.08,5.61,19.09,14.1,26.18a54.12,54.12,0,0,0-12.2-27Z" style="fill:none"/><path d="M82.51,59.83a48.13,48.13,0,0,1,6.16-3C103.47,50,98,36,98,36c-6.46-13.23-21.3-7.69-21.3-7.69C49.74,40.62,40.82,67.5,40.82,67.5c-12.41,39.21,7.88,50.78,7.88,50.78,0-1.16,0-2.27.09-3.39A73.6,73.6,0,0,1,50.91,101,64.65,64.65,0,0,1,64,75.38,70.72,70.72,0,0,1,82.51,59.83Z" style="fill:none"/><path d="M94.73,59l-.47.41-1.72,1.53c-.66.6-1.33,1.23-2,1.88l-.13.13,0,0-.44.42-.73.71c-.62.61-1.25,1.25-1.88,1.91a29.79,29.79,0,0,1,3.47-1.29,59.6,59.6,0,0,1,17.8-2.56c1.93,0,3.73.09,5.43.23a53.05,53.05,0,0,1,14.85,3.2l.69.29.15.07.07,0,.07,0-.13-.14c-.78-.86-1.6-1.7-2.43-2.52l-.22-.21c-.52-.51-1-1-1.58-1.49l-.74-.68c-.7-.62-1.38-1.22-2-1.78l-.83-.71c-1.35-1.12-2.55-2.06-3.51-2.8s-1.71-1.28-2-1.49l-.18-.13h0a58.11,58.11,0,0,0-5.48-3.57,5.51,5.51,0,0,0-4.22,0,68.24,68.24,0,0,0-8.41,5.77l-.27.21C96.82,57.2,95.8,58,94.73,59Z" style="fill:none"/><path d="M108.37,75.55h.24a11.22,11.22,0,0,0,4.52-.92l.42-.17s.51-.14,1.32-.4c.52-.16,1.17-.38,1.89-.62l.14,0c1.72-.59,3.81-1.36,5.59-2.17.61-.28,1.19-.57,1.7-.86l0,0h0c1.43-.69,1.51-1.31,1.25-1.76a1.52,1.52,0,0,0-.59-.56,1,1,0,0,0-.17-.09l0,0h0l-.29-.13-.15-.05a41.34,41.34,0,0,0-5.83-1.61L117,65.79l-.53-.1-.29-.06h0a43.1,43.1,0,0,0-7.59-.76,49.84,49.84,0,0,0-12.1,1.77c-2.28.6-3.75,1.12-3.75,1.12l-.43.21a2,2,0,0,0-.26.17c-1.17.87.21,1.79.21,1.79a18.34,18.34,0,0,0,2,1.11,77,77,0,0,0,9.32,3.42,11.84,11.84,0,0,0,4.71,1.09h.08Z" style="fill:none"/><path d="M82.57,66.63l0,0h0Z" style="fill:none"/><path d="M175.83,67.43s-8.92-26.88-35.89-39.23c0,0-14.85-5.54-21.31,7.7a14.85,14.85,0,0,0-.58,2.14c-.07.33-.14.7-.19,1.09a17.55,17.55,0,0,0-.2,2.65h0a15.19,15.19,0,0,0,3.09,9.49c.26.34.53.67.84,1h0A18.67,18.67,0,0,0,126.36,56h0l.59.31c.33.18.67.35,1,.51a45.37,45.37,0,0,1,5.19,2.44,69.69,69.69,0,0,1,6.26,3.95c1.15.81,2.34,1.7,3.55,2.67a65.67,65.67,0,0,1,24.59,44.86c.23,2.4.37,4.89.37,7.49l.12-.07v.07l0-.08c.11-.07.28-.18.5-.34C171.91,115.42,186.91,102.46,175.83,67.43Z" style="fill:none"/><path d="M108.37,75.55h.24a11.22,11.22,0,0,0,4.52-.92l.42-.17s.51-.14,1.32-.4c.52-.16,1.17-.38,1.89-.62l.14,0c1.72-.59,3.81-1.36,5.59-2.17.61-.28,1.19-.57,1.7-.86l0,0h0c1.43-.69,1.51-1.31,1.25-1.76a1.52,1.52,0,0,0-.59-.56,1,1,0,0,0-.17-.09l0,0h0l-.29-.13-.15-.05a41.34,41.34,0,0,0-5.83-1.61L117,65.79l-.53-.1-.29-.06h0a43.1,43.1,0,0,0-7.59-.76,49.84,49.84,0,0,0-12.1,1.77c-2.28.6-3.75,1.12-3.75,1.12l-.43.21a2,2,0,0,0-.26.17c-1.17.87.21,1.79.21,1.79a18.34,18.34,0,0,0,2,1.11,77,77,0,0,0,9.32,3.42,11.84,11.84,0,0,0,4.71,1.09h.08Z" style="fill:none"/><path d="M40.82,67.5c-12.41,39.21,7.88,50.78,7.88,50.78,0-1.16,0-2.27.09-3.39A73.6,73.6,0,0,1,50.91,101a37.36,37.36,0,0,0-.36,5.14v3.51l1.06.2c-.11,1.41-.18,2.84-.18,4.29a56.85,56.85,0,0,0,111.81,14.57l3.78,2,1-5.64a45.33,45.33,0,0,0,.53-7.28c3.33-2.37,18.33-15.33,7.25-50.36,0,0-8.92-26.88-35.89-39.23,0,0-14.85-5.54-21.31,7.7a14.85,14.85,0,0,0-.58,2.14c-.07.33-.14.7-.19,1.09a17.55,17.55,0,0,0-.2,2.65h0a15.19,15.19,0,0,0,3.09,9.49c.26.34.53.67.84,1h0A18.67,18.67,0,0,0,126.36,56h0l.59.31c.33.18.67.35,1,.51a45.37,45.37,0,0,1,5.19,2.44,69.69,69.69,0,0,1,6.26,3.95c1.15.81,2.34,1.7,3.55,2.67A47,47,0,0,1,151.56,76l-.4.18-.43.18-1,.43-.62.26c-.27.12-.54.22-.81.33l-.84.35v0c.13.67.3,1.41.49,2.23,1.66,7.08,5.61,19.09,14.1,26.18.43.36.88.71,1.34,1l.33.24q.52.38,1.08.72l.19.13-.16.24L164,110l-.12.2-1.07,1.72-.19-.12C151.1,104.51,146.06,90.13,144,81.58c-.19-.8-.36-1.56-.51-2.24v0q-5.05,1.84-9.88,3.14c-.58.16-1.15.3-1.72.44l-1.34.33-.11,0c-3.13,1.2-6.19,2.25-9.19,3.18q-2.79.87-5.49,1.6c-29.69,8-51.41,3.67-56.41,2.45l-.09,0-.63-.16-.29-.08h-.06l1.16-4s.36.1.93.23l.37.09.69.14c4.65,1,17.19,2.95,34.44.9l2.49-.33q3.09-.42,6.35-1l1-.19.12,0-1,0c-7-.44-20.85-1.82-31.55-5.92-2.16-.88-3.9-1.7-5.21-2.38l-.23-.11c-.27-.14-.52-.27-.74-.4-.49-.26-.89-.49-1.19-.66l-.06,0c-.41-.24-.62-.38-.62-.38L66,74.53C77.83,64.9,88.43,59.29,97.78,56.44c-1,.76-2,1.6-3,2.51l-.47.41-1.72,1.53c-.66.6-1.33,1.23-2,1.88l-.13.13,0,0-.44.42-.73.71c-.62.61-1.25,1.25-1.88,1.91a29.79,29.79,0,0,1,3.47-1.29,59.6,59.6,0,0,1,17.8-2.56c1.93,0,3.73.09,5.43.23a53.05,53.05,0,0,1,14.85,3.2l.69.29.15.07.07,0,.07,0-.13-.14c-.78-.86-1.6-1.7-2.43-2.52l-.22-.21c-.52-.51-1-1-1.58-1.49l-.74-.68c-.7-.62-1.38-1.22-2-1.78l-.83-.71c-1.35-1.12-2.55-2.06-3.51-2.8s-1.71-1.28-2-1.49l-.18-.13h0a58.11,58.11,0,0,0-5.48-3.57,5.51,5.51,0,0,0-4.22,0,68.24,68.24,0,0,0-8.41,5.77c-10.56,2.25-20.82,7.56-30.62,15.9A39.61,39.61,0,0,0,64,75.38,70.72,70.72,0,0,1,82.51,59.83a48.13,48.13,0,0,1,6.16-3C103.47,50,98,36,98,36c-6.46-13.23-21.3-7.69-21.3-7.69C49.74,40.62,40.82,67.5,40.82,67.5Z" style="fill:none"/><path d="M82.57,66.63l0,0h0Z" style="fill:none"/><path d="M54.82,104.3c0,.62-.06,1.23-.06,1.86a83.89,83.89,0,0,0,13.42.91,125.16,125.16,0,0,0,73.63-24.2S139,109.61,161.9,123.2a54,54,0,0,0,.77-9c0-.8,0-1.6-.06-2.39C151.1,104.51,146.06,90.13,144,81.58c-.19-.8-.36-1.56-.51-2.24v0q-5.05,1.84-9.88,3.14c-.58.16-1.15.3-1.72.44l-1.34.33-.11,0c-3.13,1.2-6.19,2.25-9.19,3.18q-2.79.87-5.49,1.6c-29.69,8-51.41,3.67-56.41,2.45-.28.57-.53,1.14-.79,1.72A53.94,53.94,0,0,0,54.82,104.3Z" style="fill:none"/><path d="M68,77.58a34.71,34.71,0,0,0-2.25,2.75h0a55.65,55.65,0,0,0-4.33,6.29c4.65,1,17.19,2.95,34.44.9l2.49-.33q3.09-.42,6.35-1l1-.19.12,0-1,0c-7-.44-20.85-1.82-31.55-5.92-2.16-.88-3.9-1.7-5.21-2.38h0Z" style="fill:none"/><path d="M149.88,79.18l-.1-.12-1.38-1.68-.07,0h0l-.84.35v0c.13.67.3,1.41.49,2.23,1.66,7.08,5.61,19.09,14.1,26.18a54.12,54.12,0,0,0-12.2-27Z" style="fill:none"/><path d="M139.39,99.77a52.9,52.9,0,0,1-1.65-9l-.18.11.06-.08a136.73,136.73,0,0,1-38.84,16.7l-.06,0-1.55.37a128.84,128.84,0,0,1-29,3.41,88.78,88.78,0,0,1-14.12-1,.28.28,0,0,0,0,.09c0,.17,0,.33,0,.5-.06,1.08-.11,2.16-.11,3.26a54,54,0,0,0,9.08,30c.12.18.23.36.35.53a54.72,54.72,0,0,0,19.88,17.67,54.19,54.19,0,0,0,50.28-.07,54.73,54.73,0,0,0,18.31-15.58c.64-.86,1.26-1.74,1.85-2.63A54,54,0,0,0,161,127.52,44.3,44.3,0,0,1,139.39,99.77Z" style="fill:none"/><path d="M94.73,59l-.47.41-1.72,1.53c-.66.6-1.33,1.23-2,1.88l-.13.13,0,0-.44.42-.73.71c-.62.61-1.25,1.25-1.88,1.91a29.79,29.79,0,0,1,3.47-1.29,59.6,59.6,0,0,1,17.8-2.56c1.93,0,3.73.09,5.43.23a53.05,53.05,0,0,1,14.85,3.2l.69.29.15.07.07,0,.07,0-.13-.14c-.78-.86-1.6-1.7-2.43-2.52l-.22-.21c-.52-.51-1-1-1.58-1.49l-.74-.68c-.7-.62-1.38-1.22-2-1.78l-.83-.71c-1.35-1.12-2.55-2.06-3.51-2.8s-1.71-1.28-2-1.49l-.18-.13h0a58.11,58.11,0,0,0-5.48-3.57,5.51,5.51,0,0,0-4.22,0,68.24,68.24,0,0,0-8.41,5.77l-.27.21C96.82,57.2,95.8,58,94.73,59Z" style="fill:none"/><path d="M82.51,59.83a48.13,48.13,0,0,1,6.16-3C103.47,50,98,36,98,36c-6.46-13.23-21.3-7.69-21.3-7.69C49.74,40.62,40.82,67.5,40.82,67.5c-12.41,39.21,7.88,50.78,7.88,50.78,0-1.16,0-2.27.09-3.39A73.6,73.6,0,0,1,50.91,101,64.65,64.65,0,0,1,64,75.38,70.72,70.72,0,0,1,82.51,59.83Z" style="fill:none"/><path d="M108.37,75.55h.24a11.22,11.22,0,0,0,4.52-.92l.42-.17s.51-.14,1.32-.4c.52-.16,1.17-.38,1.89-.62l.14,0c1.72-.59,3.81-1.36,5.59-2.17.61-.28,1.19-.57,1.7-.86l0,0h0c1.43-.69,1.51-1.31,1.25-1.76a1.52,1.52,0,0,0-.59-.56,1,1,0,0,0-.17-.09l0,0h0l-.29-.13-.15-.05a41.34,41.34,0,0,0-5.83-1.61L117,65.79l-.53-.1-.29-.06h0a43.1,43.1,0,0,0-7.59-.76,49.84,49.84,0,0,0-12.1,1.77c-2.28.6-3.75,1.12-3.75,1.12l-.43.21a2,2,0,0,0-.26.17c-1.17.87.21,1.79.21,1.79a18.34,18.34,0,0,0,2,1.11,77,77,0,0,0,9.32,3.42,11.84,11.84,0,0,0,4.71,1.09h.08Z" style="fill:none"/><path d="M82.57,66.63l0,0h0Z" style="fill:none"/><path d="M175.83,67.43s-8.92-26.88-35.89-39.23c0,0-14.85-5.54-21.31,7.7a14.85,14.85,0,0,0-.58,2.14c-.07.33-.14.7-.19,1.09a17.55,17.55,0,0,0-.2,2.65h0a15.19,15.19,0,0,0,3.09,9.49c.26.34.53.67.84,1h0A18.67,18.67,0,0,0,126.36,56h0l.59.31c.33.18.67.35,1,.51a45.37,45.37,0,0,1,5.19,2.44,69.69,69.69,0,0,1,6.26,3.95c1.15.81,2.34,1.7,3.55,2.67a65.67,65.67,0,0,1,24.59,44.86c.23,2.4.37,4.89.37,7.49l.12-.07v.07l0-.08c.11-.07.28-.18.5-.34C171.91,115.42,186.91,102.46,175.83,67.43Z" style="fill:none"/><path d="M87.3,45.34a4.72,4.72,0,1,0-4.81-4.72A4.78,4.78,0,0,0,87.3,45.34Z" style="fill:#010101"/><path d="M131.25,36.21a5,5,0,0,0-1.91-.38,4.72,4.72,0,1,0,0,9.44,4.85,4.85,0,0,0,3.55-1.54,4.66,4.66,0,0,0,1.27-3.18A4.74,4.74,0,0,0,131.25,36.21Z" style="fill:#010101"/><path d="M135.4,18.75a81.72,81.72,0,0,0-61.53,3.18A80.4,80.4,0,0,0,27.4,94.56c0,44.31,36.4,80.36,81.14,80.36s81.15-36,81.15-80.36C189.69,59.58,167,29.76,135.4,18.75ZM108.57,50a3.79,3.79,0,0,1,2.11.42A58.11,58.11,0,0,1,116.16,54h0l.18.13c.3.21,1,.73,2,1.49s2.16,1.68,3.51,2.8l.83.71c.66.56,1.34,1.16,2,1.78l.74.68c.53.48,1.06,1,1.58,1.49l.22.21c.83.82,1.65,1.66,2.43,2.52l.13.14-.07,0-.07,0-.15-.07-.69-.29A53.05,53.05,0,0,0,114,62.36c-1.7-.14-3.5-.23-5.43-.23a59.6,59.6,0,0,0-17.8,2.56A29.79,29.79,0,0,0,87.3,66c.63-.66,1.26-1.3,1.88-1.91l.73-.71.44-.42,0,0,.13-.13c.69-.65,1.36-1.28,2-1.88l1.72-1.53.47-.41c1.07-.91,2.09-1.75,3-2.51l.27-.21a68.24,68.24,0,0,1,8.41-5.77A3.78,3.78,0,0,1,108.57,50Zm24.92,112.28a54.19,54.19,0,0,1-50.28.07,54.72,54.72,0,0,1-19.88-17.67c-.12-.17-.23-.35-.35-.53a54,54,0,0,1-9.08-30c0-1.1.05-2.18.11-3.26,0-.17,0-.33,0-.5a.28.28,0,0,1,0-.09,88.78,88.78,0,0,0,14.12,1,128.84,128.84,0,0,0,29-3.41l1.55-.37.06,0a136.73,136.73,0,0,0,38.84-16.7l-.06.08.18-.11a52.9,52.9,0,0,0,1.65,9A44.3,44.3,0,0,0,161,127.52a54,54,0,0,1-7.35,16.59c-.59.89-1.21,1.77-1.85,2.63A54.73,54.73,0,0,1,133.49,162.32Zm14.84-84.91.07,0,1.38,1.68.1.12h0a54.12,54.12,0,0,1,12.2,27C153.59,99.09,149.64,87.08,148,80c-.19-.82-.36-1.56-.49-2.23v0l.84-.35Zm-4.84,1.93c.15.68.32,1.44.51,2.24,2.06,8.55,7.1,22.93,18.61,30.19,0,.79.06,1.59.06,2.39a54,54,0,0,1-.77,9C139,109.61,141.81,82.87,141.81,82.87a125.16,125.16,0,0,1-73.63,24.2,83.89,83.89,0,0,1-13.42-.91c0-.63,0-1.24.06-1.86a53.94,53.94,0,0,1,3.73-12.1c.26-.58.51-1.15.79-1.72,5,1.22,26.72,5.54,56.41-2.45q2.7-.73,5.49-1.6c3-.93,6.06-2,9.19-3.18l.11,0,1.34-.33c.57-.14,1.14-.28,1.72-.44q4.82-1.29,9.88-3.14ZM82.57,66.63l0,0h0ZM65.75,80.33h0A34.71,34.71,0,0,1,68,77.58l.06,0h0c1.31.68,3,1.5,5.21,2.38,10.7,4.1,24.55,5.48,31.55,5.92l1,0-.12,0-1,.19q-3.26.61-6.35,1l-2.49.33c-17.25,2-29.79.07-34.44-.9A55.65,55.65,0,0,1,65.75,80.33Zm50.41-14.7h0l.29.06.53.1,1.45.31a41.34,41.34,0,0,1,5.83,1.61l.15.05.29.13h0l0,0a1,1,0,0,1,.17.09,1.52,1.52,0,0,1,.59.56c.26.45.18,1.07-1.25,1.76h0l0,0c-.51.29-1.09.58-1.7.86-1.78.81-3.87,1.58-5.59,2.17l-.14,0c-.72.24-1.37.46-1.89.62-.81.26-1.32.4-1.32.4l-.42.17a11.22,11.22,0,0,1-4.52.92h-.32a11.84,11.84,0,0,1-4.71-1.09A77,77,0,0,1,94.26,71a18.34,18.34,0,0,1-2-1.11S90.86,69,92,68.14a2,2,0,0,1,.26-.17l.43-.21s1.47-.52,3.75-1.12a49.84,49.84,0,0,1,12.1-1.77,43.1,43.1,0,0,1,7.59.76ZM48.7,118.28S28.41,106.71,40.82,67.5c0,0,8.92-26.88,35.89-39.23,0,0,14.84-5.54,21.3,7.69,0,0,5.46,14.07-9.34,20.91a48.13,48.13,0,0,0-6.16,3A70.72,70.72,0,0,0,64,75.38,64.65,64.65,0,0,0,50.91,101a73.6,73.6,0,0,0-2.12,13.87C48.74,116,48.7,117.12,48.7,118.28Zm119.88-.49c-.22.16-.39.27-.5.34l0,.08v-.07l-.12.07c0-2.6-.14-5.09-.37-7.49A65.67,65.67,0,0,0,143,65.86c-1.21-1-2.4-1.86-3.55-2.67a69.69,69.69,0,0,0-6.26-3.95A45.37,45.37,0,0,0,128,56.8c-.36-.16-.7-.33-1-.51l-.59-.31h0a18.67,18.67,0,0,1-4.77-3.69h0c-.31-.34-.58-.67-.84-1a15.19,15.19,0,0,1-3.09-9.49h0a17.55,17.55,0,0,1,.2-2.65c0-.39.12-.76.19-1.09a14.85,14.85,0,0,1,.58-2.14c6.46-13.24,21.31-7.7,21.31-7.7,27,12.35,35.89,39.23,35.89,39.23C186.91,102.46,171.91,115.42,168.58,117.79Z" style="fill:#010101"/><path d="M100.59,56a5.2,5.2,0,0,0-1.84,2.08l0,.12a.71.71,0,0,0,.75,1,3,3,0,0,0,.87-.14,6.73,6.73,0,0,0,2.59-1.59l0,0c.89-.86,1.32-1.76,1-2.25a0,0,0,0,0,0,0,.7.7,0,0,0-.43-.26,3.18,3.18,0,0,0-1.9.41c-.15.07-.3.16-.46.25A5.09,5.09,0,0,0,100.59,56Z" style="fill:#fff3b6"/><path d="M116.79,55.43a10.64,10.64,0,0,1,.51,2.19c0,.14,0,.28,0,.41,0,.42.05.83.05,1.22,0,.18,0,.35,0,.51s0,.54-.06.78v.05a12.38,12.38,0,0,1-.38,2.07,41.68,41.68,0,0,1,12,2.93l.61.26.15.07.07,0,.07,0-.13-.14c-.78-.86-1.6-1.7-2.43-2.52l-.22-.21c-.52-.51-1-1-1.58-1.49l-.74-.68c-.7-.62-1.38-1.22-2-1.78l-.83-.71c-1.35-1.12-2.55-2.06-3.51-2.8s-1.71-1.28-2-1.49l-.18-.13h0a.67.67,0,0,1,.06.12A8.5,8.5,0,0,1,116.79,55.43Z" style="fill:#f3961f"/><path d="M116.16,65.63h0l.29.06Z" style="fill:#ec8a23"/><path d="M111.78,72.76l-.11.11q-.51.5-1,.9a19.54,19.54,0,0,1-2.39,1.78h.32a15.28,15.28,0,0,0,4.52-.92l.42-.17,1.29-.4c.66-.21,1.28-.42,1.87-.63l.14-.05c2.48-.86,4.32-1.62,5.55-2.17,1-.45,1.62-.76,1.79-.85l0,0h0c1.43-.69,1.51-1.31,1.25-1.76a1.93,1.93,0,0,0-.59-.56,1,1,0,0,0-.17-.09l0,0h0l-.44-.18a41.34,41.34,0,0,0-5.83-1.61L117,65.79l-.53-.1-.29-.06a14.38,14.38,0,0,1-2.37,4.82A21.36,21.36,0,0,1,111.78,72.76Z" style="fill:#ec8a23"/><path d="M82.51,59.83A51.65,51.65,0,0,1,90.36,56c-53.49,18.48-41.7,62.23-41.7,62.23,0-1.13.07-2.23.13-3.32A73.6,73.6,0,0,1,50.91,101,64.65,64.65,0,0,1,64,75.38,70.72,70.72,0,0,1,82.51,59.83Z" style="fill:#c1c1c6"/></svg>