<svg id="a6b1604b-48d4-4a08-a0bb-7b6966c31af9" data-name="Layer 3" xmlns="http://www.w3.org/2000/svg" viewBox="0 0 756.45 177.88"><title>census-logo-wordmark</title><g id="a727f375-fd4b-43c9-af01-b8737aa12c05" data-name="RqjVZY"><path d="M670.79,61.56a28.38,28.38,0,0,1,11-6c9-2.4,16.16.5,21.89,7.54,2.41,2.95,4,6.43,5.7,9.77,4.14,7.9,8.15,15.88,12.23,23.82.31.59.42,1.57,1.15,1.58,1,0,.94-1.09,1.17-1.76,1.4-4,2.92-7.89,4.06-11.93,1.51-5.34,1.68-9.29-4.2-13.14-4.41-2.88-4.56-7.88-.93-11.73a14.67,14.67,0,0,1,5.61-3.56c4.55-1.72,9.22-2.73,14.09-1.42a9.77,9.77,0,0,1,7.26,9c.62,8.46-2.19,16.12-5.75,23.48-9.79,20.24-19.79,40.39-31.17,59.8-4.87,8.3-10.48,16.12-18.09,22.26-9.66,7.8-21.51,6.27-27.56-3.74-2.64-4.36-3.3-9-.75-13.7s6.76-6.17,11.64-6.33c4.71-.16,9.44,0,14.16-.07,8.43-.13,15.66-10.6,12.47-18.38-5-12.24-11.31-23.88-17.07-35.77a119.87,119.87,0,0,0-5.76-11.22,10.36,10.36,0,0,0-6.3-4.94c-.58-.15-1.14-.37-1.71-.55-5-1.59-6.35-3.59-5.91-9a27.33,27.33,0,0,1-9.79,1.57c-1.35,0-1.7,1-1.68,2.13.23,14.67-.62,29.36.52,44a11.48,11.48,0,0,0,1.43,4.38c1,2,2.95,2.45,5.59,1.54,3.88-1.35,5.6-1.13,6.92.88,1.42,2.18,1.06,5.39-1.31,7.79-6.76,6.83-15.18,8.6-24.39,7.5a17.33,17.33,0,0,1-10.81-5.45,18.11,18.11,0,0,1-5.18-12.53c-.15-11.51,0-23-.15-34.51,0-4.38-.35-8.74-.49-13.12-.07-2.18-.95-3.36-3.27-3.83-4.17-.86-5.59-4.82-3.14-8.31a10.49,10.49,0,0,1,2.3-2.4c6.09-4.52,8.72-10.92,9.74-18.09s-2.34-13.37-8.18-15c-10.52-2.86-21.57,2.18-23,15.06-1,9.19,2.06,17,8.39,23.7,2.58,2.72,5.61,5,6.8,8.89,1.35,4.37.56,8.14-2.74,11.3a15.59,15.59,0,0,1-12.21,4.45,6.51,6.51,0,0,1-6.56-6.6c-.13-2.66.13-5.33,0-8a6.3,6.3,0,0,0-6.12-6.42c-2.54-.2-5,.31-6.28,2.65a8.86,8.86,0,0,0,.13,8.88c2.17,4,6,6,9.82,8,5.93,3.11,12.18,5.64,17.61,9.61,8.09,5.92,12,13.8,10,23.91-1.26,6.46-5.63,10.85-11.18,13.74-14.4,7.52-29.24,8.17-44,1.21a19.15,19.15,0,0,1-10.79-12.15c-1.84-6.3-.26-11.3,5.16-15.06a16.44,16.44,0,0,1,10.36-3.27c3.77.16,6.08,1.73,7.41,5.25a18.92,18.92,0,0,1,.94,6.84,19.61,19.61,0,0,0,2.4,9.64c1.92,3.46,5.26,5,8.6,4.13,2.86-.75,4.88-3.93,5-7.65.11-5-2.48-8.58-6.44-11-6-3.7-12.27-6.88-18.27-10.54-5.08-3.1-9.18-7.2-10.94-13.15-3-10.1,1.09-19.78,10.37-24.91,5.38-3,11.23-4.23,17.23-4.78,2.34-.22,2.72-.84,2.06-3-2.21-7.24-2.46-14.49.35-21.7,4.26-10.94,12.9-16.37,23.84-18.57a45.49,45.49,0,0,1,21.65.74c10.37,3,16.72,9.73,19.3,20.07,1.64,6.55,1.62,13.26,1.62,20,0,3.17.11,3.24,3.21,2.34l.73-.23C666.54,53.53,669.25,55,670.79,61.56Z" style="fill:#010101"/><path d="M249.6,91.84c-3.52,0-7,0-10.56,0-3.07.05-4.35,1-4.59,4a81.16,81.16,0,0,0,.38,19.76,8.94,8.94,0,0,0,4.39,6.38c2.21,1.32,3.8,3.1,3.5,5.82-.33,2.92-2.22,4.74-4.83,5.87-3.94,1.72-8.18,1.91-12.35,2.19-7.8.52-15.61.43-23.2-1.86a8,8,0,0,1-4.84-3.61c-1.5-2.56-1.47-5.62,1-7.2,5.95-3.84,6.63-9.68,6.66-15.79.1-16.56,0-33.13,0-49.7a48.66,48.66,0,0,0-.45-6.15,11.94,11.94,0,0,0-3.43-7.32c-1-1-2-1.87-2.92-2.9-3-3.49-2.11-7.23,2.11-9.14,3.75-1.69,7.75-2,11.76-2.54a56.36,56.36,0,0,1,26.11,2.39c5.3,1.87,6.14,6.7,1.66,10.06-4.33,3.25-5.7,7.55-5.78,12.55q-.12,8.23,0,16.48c.05,4.06,1.36,5.51,5.41,5.6,6.78.15,13.56.14,20.34,0,3.94-.08,5.38-1.38,5.46-5.32.13-6.5.55-13-.49-19.53A14.61,14.61,0,0,0,260.3,43c-5.52-5.11-4.45-9.7,2.79-11.66a65.8,65.8,0,0,1,32.07-.47,21.71,21.71,0,0,1,3.89,1.31c4.14,1.75,5.25,6.83,1.64,9.52-5.29,3.93-6.38,9.15-6.36,15.16.07,17.6,0,35.2,0,52.79,0,5.29,1.33,9.83,5.83,13.33,4.33,3.37,3.13,9-2,10.9-4.07,1.52-8.39,1.79-12.65,2-7.72.45-15.44.4-22.95-1.9a9,9,0,0,1-3.73-2.21c-2.7-2.65-3-6.66.09-8.77,5.51-3.78,6.24-9.33,6.55-15.15.18-3.42.14-6.87,0-10.3-.2-4.44-1.66-5.76-6.08-5.79-3.27,0-6.53,0-9.79,0Z" style="fill:#010101"/><path d="M418.8,69.81c1.83-1.89,3.56-3.89,5.52-5.64,8.86-8,19.22-10.8,30.79-8,9.9,2.37,14.78,10.17,15.32,20.73.48,9.16.17,18.36.15,27.54a40.07,40.07,0,0,0,.66,6.65,7.89,7.89,0,0,0,4.78,6.22c4.45,2.13,5.12,6.31,1.67,10a25.2,25.2,0,0,1-9.36,5.74,35,35,0,0,1-14.9,2.16c-6.46-.34-10.6-4.34-10.65-10.84-.1-12.53-.07-25.06-.07-37.59a19.94,19.94,0,0,0-.73-5.6A6.44,6.44,0,0,0,435,76c-8.24.29-16.91,9.06-16.84,17.29.05,6.68-.45,13.38.42,20a11.42,11.42,0,0,0,5.05,8.54c4.31,2.94,4,8.38-.53,10.9a20.58,20.58,0,0,1-9.68,2.3c-5.83.1-11.67.07-17.51,0a22.48,22.48,0,0,1-8.76-1.85c-5.45-2.37-6.39-7.79-1.75-11.42,3.78-3,5.2-6.78,5.26-11.2q.22-14.53,0-29.09c-.05-3.9-1.36-7.08-5.6-8.61-3.66-1.32-4.46-4.91-2.09-8.26,3.23-4.56,8-7,13.17-8.48a27.3,27.3,0,0,1,13.5-.45c5.11,1.1,8.06,4.49,8.36,9.69.08,1.35.13,2.71.19,4.07Z" style="fill:#010101"/><path d="M342.47,54.79c10.22-.2,19.53,2.39,27.43,9.11,6.17,5.25,9.78,12.07,11.66,19.84a45,45,0,0,1-2.26,29c-4.56,10.62-12.49,17.43-23.61,20.49-11.47,3.15-22.81,2.85-33.64-2.32-11.64-5.56-17.58-15.34-19.44-27.87a50.06,50.06,0,0,1,1.63-23.39c5.2-15.74,18-23.71,34.11-24.81C339.72,54.71,341.1,54.79,342.47,54.79Zm12.19,49.93a72.58,72.58,0,0,0-2.86-18.88c-1.7-6.21-3.85-12.28-8.1-17.34-3.77-4.49-9.08-3.73-11.47,1.58-2.07,4.61-2.23,9.5-2.12,14.37a79.47,79.47,0,0,0,4.47,24.42A38.1,38.1,0,0,0,341,121.12c4.1,4.86,9.07,4.15,11.65-1.61C354.49,115.41,354.62,111,354.66,104.72Z" style="fill:#010101"/><path d="M529.76,116.59c6.58.42,12.32-1.65,17.9-4.53,3.45-1.78,6.26-.54,6.62,2.69.16,1.49-.65,2.6-1.42,3.75-5.45,8.14-13.33,12.77-22.56,15.14a43.33,43.33,0,0,1-35.09-5.43c-10-6.26-15.15-15.57-16.8-27-2.56-17.77,5.3-36.28,23.58-43.56,11.58-4.61,23.45-5,35.19-.56C547.51,61,553,70.32,551.86,81.33c-.67,6.58-6.13,11.72-14,13.54-5.86,1.35-11.92,1.47-17.75,2.92-3.24.8-6.47,1.8-7.22,5.65a9.58,9.58,0,0,0,4.91,10.7A19.94,19.94,0,0,0,529.76,116.59Zm-25.16-20c2.41-6,7.83-7.45,13.17-9.13,3.26-1,6.6-1.87,9.58-3.66,4.51-2.72,5.51-6.94,5-11.77-.38-3.8-2.57-6.25-6-7.7-8-3.43-18,.63-21.63,8.67-2.89,6.45-2.85,13.13-1.7,19.89C503.27,94.06,503.24,95.44,504.6,96.56Z" style="fill:#010101"/></g><path d="M99,39.09h0Z" style="fill:none"/><path d="M95.21,25.92c.06-.39.12-.76.19-1.09C95.33,25.16,95.27,25.53,95.21,25.92Z" style="fill:none"/><path d="M95,28.57a20.61,20.61,0,0,1,.2-2.65A20.61,20.61,0,0,0,95,28.57Z" style="fill:none"/><path d="M98.1,38.07A15.25,15.25,0,0,1,95,28.58,15.25,15.25,0,0,0,98.1,38.07Z" style="fill:none"/><path d="M93.52,52.43h0l.28,0Z" style="fill:none"/><polygon points="103.71 42.77 103.71 42.77 103.71 42.77 103.71 42.77" style="fill:none"/><path d="M59.89,53.44h0l0,0Z" style="fill:none"/><path d="M62.37,142.35a13.77,13.77,0,0,1-1,5.15c12.15,6,28.9,9.17,48.49-.59a13.77,13.77,0,0,1-.78-4.56A13.93,13.93,0,0,1,131,130.9a53.89,53.89,0,0,0,7.36-16.59,44.34,44.34,0,0,1-21.62-27.75,55,55,0,0,1-1.65-9l-.17.11c-1.28,1.59-22,26.22-83.53,23.61a27.44,27.44,0,0,1,0-3.58c-.07,1.08-.11,2.16-.11,3.26a54.08,54.08,0,0,0,9.08,30,13.8,13.8,0,0,1,8.07-2.6A14,14,0,0,1,62.37,142.35Zm53.8-35.82a6.59,6.59,0,1,1-6.59,6.59A6.58,6.58,0,0,1,116.17,106.53ZM69.05,125.87a3,3,0,0,1,4.25.3c.08.08,5.75,6.46,12.86,6.46h0c4.09,0,8-2.19,11.74-6.45a3,3,0,1,1,4.56,3.95c-4.9,5.66-10.4,8.54-16.34,8.54-9.91,0-17.12-8.19-17.42-8.54A3,3,0,0,1,69.05,125.87Zm-15-19.34a6.59,6.59,0,1,1-6.59,6.59A6.59,6.59,0,0,1,54.07,106.53Z" style="fill:#fdcca0"/><path d="M74.53,94.66a129,129,0,0,1-29,3.41,87.59,87.59,0,0,1-14.13-1v.1C31.67,97.25,49.55,100.67,74.53,94.66Z" style="fill:#fdcca0"/><path d="M54.07,119.71a6.59,6.59,0,1,0-6.59-6.59A6.59,6.59,0,0,0,54.07,119.71Z" style="fill:#000101"/><path d="M86.16,138.67c5.94,0,11.44-2.88,16.34-8.54a3,3,0,1,0-4.56-3.95c-3.7,4.26-7.65,6.43-11.74,6.45h0c-7.11,0-12.78-6.38-12.86-6.46a3,3,0,0,0-4.56,4C69,130.48,76.25,138.67,86.16,138.67Z" style="fill:#000101"/><path d="M116.17,119.71a6.59,6.59,0,1,0-6.59-6.59A6.58,6.58,0,0,0,116.17,119.71Z" style="fill:#000101"/><path d="M50.62,66.78c-2.16-.87-3.91-1.7-5.22-2.37h0A43.16,43.16,0,0,0,50.62,66.78Z" style="fill:#f2862f"/><path d="M38.78,73.42c4.65,1,17.18,3,34.44.89-20.42-1.64-29.94-7.09-30.11-7.18A51.56,51.56,0,0,0,38.78,73.42Z" style="fill:#f2862f"/><path d="M125.33,66.79C127,73.88,130.94,85.88,139.44,93a54.21,54.21,0,0,0-12.2-27C126.6,66.26,126,66.52,125.33,66.79Z" style="fill:#f2862f"/><path d="M120.84,66.08c-3.38,1.24-6.67,2.28-9.88,3.15,4-1.06,7.37-2.18,9.89-3.1Z" style="fill:#f2862f"/><path d="M125.68,64.19l-.84.35v0l.84-.37Z" style="fill:#f2862f"/><path d="M35.91,79A53.89,53.89,0,0,0,32.17,91.1c0,.61-.05,1.23-.05,1.85a82.84,82.84,0,0,0,13.42.92,125.1,125.1,0,0,0,73.62-24.21S116.34,96.4,139.26,110a53.88,53.88,0,0,0,.77-9c0-.8,0-1.6-.06-2.39-11.51-7.26-16.56-21.64-18.61-30.19a105.73,105.73,0,0,1-27.25,6.35C61,85.14,37.16,79.31,35.91,79Z" style="fill:#f2862f"/><path d="M31.39,101.27c61.56,2.61,82.25-22,83.53-23.61l.06-.08A137.08,137.08,0,0,1,76.14,94.27l-.07,0-1.54.37c-25,6-42.86,2.59-43.12,2.54,0,.16,0,.32,0,.49A27.44,27.44,0,0,0,31.39,101.27Z" style="fill:#d8a27d"/><path d="M74.53,94.66l1.54-.37" style="fill:none;stroke:#d8a27d;stroke-linecap:round;stroke-linejoin:round;stroke-width:0px"/><path d="M94.11,74.72a105.73,105.73,0,0,0,27.25-6.35c-.2-.8-.37-1.55-.51-2.24-2.52.92-5.89,2-9.89,3.1l-1.72.44L107.9,70l-.12.05c-3.13,1.2-6.19,2.25-9.18,3.19-1.86.58-3.69,1.1-5.5,1.59-29.68,8-51.4,3.68-56.41,2.45-.27.57-.53,1.15-.78,1.72C37.16,79.31,61,85.14,94.11,74.72Z" style="fill:#b25226"/><path d="M109.09,142.35a13.77,13.77,0,0,0,.78,4.56,88.4,88.4,0,0,0,19.29-13.38c.64-.85,1.25-1.73,1.84-2.63a13.93,13.93,0,0,0-21.91,11.45Z" style="fill:#f48c9c"/><path d="M61.38,147.5a13.77,13.77,0,0,0,1-5.15,14,14,0,0,0-14-14,13.8,13.8,0,0,0-8.07,2.6l.35.52A67.61,67.61,0,0,0,61.38,147.5Z" style="fill:#f48c9c"/><path d="M110.85,149.12a54.87,54.87,0,0,0,18.31-15.59,88.4,88.4,0,0,1-19.29,13.38c-19.59,9.76-36.34,6.59-48.49.59a67.61,67.61,0,0,1-20.69-16,54.72,54.72,0,0,0,19.88,17.67,54.22,54.22,0,0,0,50.28-.06Z" style="fill:#d8a27d"/><path d="M40.28,131h0" style="fill:none;stroke:#000101;stroke-linecap:round;stroke-linejoin:round;stroke-width:0px"/><path d="M67.72,42.77a52.88,52.88,0,0,0-7.85,3.85,47.72,47.72,0,0,1,6.15-3c14.8-6.84,9.35-20.9,9.35-20.9-6.46-13.24-21.3-7.7-21.3-7.7-27,12.35-35.9,39.23-35.9,39.23-12.4,39.21,7.89,50.78,7.89,50.78,0-1.15,0-2.27.09-3.39-.07,1.09-.12,2.2-.14,3.32C26,105,14.23,61.25,67.72,42.77ZM64.66,22.69a4.72,4.72,0,1,1-4.82,4.72A4.77,4.77,0,0,1,64.66,22.69Z" style="fill:#f9f9fa"/><path d="M102.85,55.37a1.42,1.42,0,0,0-.58-.56A1.79,1.79,0,0,1,102.85,55.37Z" style="fill:#f5ac1f"/><path d="M90.49,61.42a15.29,15.29,0,0,1-4.53.92A11.23,11.23,0,0,0,90.49,61.42Z" style="fill:#f5ac1f"/><path d="M101.77,54.55l-.15,0,.43.19Z" style="fill:#f5ac1f"/><path d="M94.34,52.59c.38.07.87.17,1.44.3C95.32,52.78,94.83,52.68,94.34,52.59Z" style="fill:#f5ac1f"/><path d="M69.6,56.72a16.67,16.67,0,0,0,2,1.11,77.87,77.87,0,0,0,9.32,3.43,12.22,12.22,0,0,0,4.7,1.09A19.07,19.07,0,0,0,88,60.56q.48-.41,1-.9a1.14,1.14,0,0,1,.11-.11,19.44,19.44,0,0,0,2-2.31,14.26,14.26,0,0,0,2.38-4.81,42.25,42.25,0,0,0-7.59-.77,49.4,49.4,0,0,0-12.11,1.78c-2.27.59-3.74,1.11-3.74,1.11a3.47,3.47,0,0,0-.43.21l-.27.17C68.21,55.8,69.6,56.72,69.6,56.72Z" style="fill:#f5ac1f"/><path d="M94.21,60.18l-.15,0-1.86.62-1.29.41,1.31-.41c.52-.16,1.18-.38,1.89-.62l.15,0A58.15,58.15,0,0,0,99.84,58c.62-.28,1.2-.57,1.71-.86-.18.09-.77.4-1.79.86C98.53,58.56,96.69,59.32,94.21,60.18Z" style="fill:#f5ac1f"/><path d="M72.09,45.74l-.47.41c-.56.49-1.14,1-1.72,1.53s-1.34,1.23-2,1.88a1.59,1.59,0,0,1-.13.13l0,0c-.15.14-.3.28-.44.43l-.73.7c-.62.62-1.25,1.25-1.88,1.91a29.79,29.79,0,0,1,3.47-1.29,59.6,59.6,0,0,1,17.8-2.56c1.92,0,3.73.09,5.42.23a52.86,52.86,0,0,1,14.85,3.2l.7.29-.61-.26a42.22,42.22,0,0,0-12-2.93,12.11,12.11,0,0,0,.38-2.07v0c0-.25,0-.51.06-.78s0-.34,0-.52c0-.38,0-.79-.06-1.21,0-.14,0-.28,0-.42a10.64,10.64,0,0,0-.51-2.19,9.63,9.63,0,0,0-.57-1.28l-.06-.11A58.86,58.86,0,0,0,88,37.25a3.72,3.72,0,0,0-2.11-.41,3.67,3.67,0,0,0-2.11.41A68.24,68.24,0,0,0,75.41,43l-.27.21C74.18,44,73.16,44.83,72.09,45.74Zm11.84.87h0Zm-2,.1-.5,0ZM80.9,41.79a.72.72,0,0,1,.44.25,0,0,0,0,0,0,0c.3.49-.14,1.39-1,2.25l0,0a8.66,8.66,0,0,1-.78.65,6.29,6.29,0,0,1-1.82.93,2.62,2.62,0,0,1-.87.14.88.88,0,0,1-.71-.28.91.91,0,0,1,0-.77s0-.08,0-.12a5.3,5.3,0,0,1,1.83-2.08,6.92,6.92,0,0,1,.61-.39,5.2,5.2,0,0,1,.46-.25A3.06,3.06,0,0,1,80.9,41.79Z" style="fill:#f8c122"/><path d="M82,46.71l-.5,0" style="fill:none;stroke:#f8c122;stroke-linecap:round;stroke-linejoin:round;stroke-width:0px"/><path d="M83.56,46.62h.37" style="fill:none;stroke:#f8c122;stroke-linecap:round;stroke-linejoin:round;stroke-width:0px"/><path d="M45.34,64.38a32.3,32.3,0,0,0-2.24,2.74h0c.17.09,9.69,5.54,30.11,7.18L75.7,74c2.06-.29,4.18-.63,6.36-1l1-.19.13,0-1,0c-7-.45-20.85-1.83-31.55-5.93a43.16,43.16,0,0,1-5.22-2.37Z" style="fill:#b25226"/><path d="M96,22.69a14,14,0,0,0-.59,2.14c-.07.33-.13.7-.19,1.09a20.61,20.61,0,0,0-.2,2.65h0a15.25,15.25,0,0,0,3.09,9.49c.27.34.54.68.84,1h0a18.81,18.81,0,0,0,4.76,3.68h0c45.91,15.86,43.74,50.34,42.2,59.79-.21,1.29-.41,2.11-.47,2.36l.5-.34c3.33-2.37,18.32-15.33,7.24-50.36,0,0-8.91-26.88-35.89-39.23C117.29,15,102.45,9.46,96,22.69Zm10.71-.07a4.78,4.78,0,0,1,1.9.39,4.71,4.71,0,0,1,2.92,4.34,4.62,4.62,0,0,1-1.28,3.17,4.83,4.83,0,0,1-3.54,1.54,4.72,4.72,0,1,1,0-9.44Z" style="fill:#f9f9fa"/><path d="M103.71,42.77l.6.32,1,.51a45.69,45.69,0,0,1,5.2,2.43c-2-1.14-3.74-2-4.93-2.48S103.72,42.77,103.71,42.77Z" style="fill:#f9f9fa"/><path d="M145.3,105l.12-.07c0-2.57-.22-5-.49-7.42C145.16,99.92,145.3,102.4,145.3,105Z" style="fill:#f9f9fa"/><path d="M127.24,66l-.11-.12-1.38-1.68-.06,0-.84.37c.13.66.29,1.41.48,2.22.64-.27,1.27-.53,1.91-.82Z" style="fill:#b25226"/><line x1="103.71" y1="42.77" x2="103.71" y2="42.77" style="fill:none;stroke:#c1c1c6;stroke-linecap:round;stroke-linejoin:round;stroke-width:0px"/><path d="M144.93,97.51c.27,2.38.44,4.85.49,7.42V105a.73.73,0,0,0,0-.08c.06-.25.26-1.07.47-2.36,1.54-9.45,3.71-43.93-42.2-59.79,0,0,.7.25,1.89.78s2.89,1.34,4.93,2.48A70.51,70.51,0,0,1,116.78,50q1.74,1.22,3.56,2.67A65.67,65.67,0,0,1,144.93,97.51Z" style="fill:#c1c1c6"/><path d="M32.17,91.1c0,.61-.05,1.23-.05,1.85a82.84,82.84,0,0,0,13.42.92,125.1,125.1,0,0,0,73.62-24.21S116.34,96.4,139.26,110a53.88,53.88,0,0,0,.77-9c0-.8,0-1.6-.06-2.39-11.51-7.26-16.56-21.64-18.61-30.19-.2-.8-.37-1.55-.51-2.24v0c-3.38,1.24-6.67,2.28-9.88,3.15l-1.72.44L107.9,70l-.12.05c-3.13,1.2-6.19,2.25-9.18,3.19-1.86.58-3.69,1.1-5.5,1.59-29.68,8-51.4,3.68-56.41,2.45-.27.57-.53,1.15-.78,1.72A53.89,53.89,0,0,0,32.17,91.1Z" style="fill:none"/><path d="M116.74,86.56a55,55,0,0,1-1.65-9l-.17.11.06-.08A137.08,137.08,0,0,1,76.14,94.27l-.07,0-1.54.37a129,129,0,0,1-29,3.41,87.59,87.59,0,0,1-14.13-1v.1c0,.16,0,.32,0,.49-.07,1.08-.11,2.16-.11,3.26a54.08,54.08,0,0,0,9.08,30l.35.52a54.72,54.72,0,0,0,19.88,17.67,54.22,54.22,0,0,0,50.28-.06,54.87,54.87,0,0,0,18.31-15.59c.64-.85,1.25-1.73,1.84-2.63a53.89,53.89,0,0,0,7.36-16.59A44.34,44.34,0,0,1,116.74,86.56Z" style="fill:none"/><path d="M45.34,64.38a32.3,32.3,0,0,0-2.24,2.74h0a51.56,51.56,0,0,0-4.33,6.29c4.65,1,17.18,3,34.44.89L75.7,74c2.06-.29,4.18-.63,6.36-1l1-.19.13,0-1,0c-7-.45-20.85-1.83-31.55-5.93-2.16-.87-3.91-1.7-5.22-2.37h0Z" style="fill:none"/><path d="M127.24,66l-.11-.12-1.38-1.68-.06,0h0l-.84.35v0c.13.66.29,1.41.48,2.22C127,73.88,130.94,85.88,139.44,93a54.21,54.21,0,0,0-12.2-27Z" style="fill:none"/><path d="M59.87,46.62a47.72,47.72,0,0,1,6.15-3c14.8-6.84,9.35-20.9,9.35-20.9-6.46-13.24-21.3-7.7-21.3-7.7-27,12.35-35.9,39.23-35.9,39.23-12.4,39.21,7.89,50.78,7.89,50.78,0-1.15,0-2.27.09-3.39a72.8,72.8,0,0,1,2.12-13.87A64.52,64.52,0,0,1,41.36,62.17,70.6,70.6,0,0,1,59.87,46.62Z" style="fill:none"/><path d="M72.09,45.74l-.47.41c-.56.49-1.14,1-1.72,1.53s-1.34,1.23-2,1.88a1.59,1.59,0,0,1-.13.13l0,0c-.15.14-.3.28-.44.43l-.73.7c-.62.62-1.25,1.25-1.88,1.91a29.79,29.79,0,0,1,3.47-1.29,59.6,59.6,0,0,1,17.8-2.56c1.92,0,3.73.09,5.42.23a52.86,52.86,0,0,1,14.85,3.2l.7.29.15.07.07,0,.07,0-.13-.14c-.79-.86-1.61-1.7-2.44-2.51l-.21-.21-1.58-1.5-.75-.68c-.69-.62-1.37-1.22-2-1.78l-.83-.7c-1.34-1.12-2.55-2.07-3.51-2.81S94,41.16,93.69,41l-.17-.13h0A58.86,58.86,0,0,0,88,37.25a3.72,3.72,0,0,0-2.11-.41,3.67,3.67,0,0,0-2.11.41A68.24,68.24,0,0,0,75.41,43l-.27.21C74.18,44,73.16,44.83,72.09,45.74Z" style="fill:none"/><path d="M85.73,62.34H86a11.23,11.23,0,0,0,4.53-.92l.42-.16,1.31-.41c.52-.16,1.18-.38,1.89-.62l.15,0A58.15,58.15,0,0,0,99.84,58c.62-.28,1.2-.57,1.71-.86l0,0h0c1.43-.69,1.5-1.31,1.24-1.75a1.42,1.42,0,0,0-.58-.56l-.17-.1h0l-.28-.14-.15,0a42.88,42.88,0,0,0-5.84-1.61c-.46-.11-1-.21-1.44-.3l-.54-.11-.28,0h0a42.25,42.25,0,0,0-7.59-.77,49.4,49.4,0,0,0-12.11,1.78c-2.27.59-3.74,1.11-3.74,1.11a3.47,3.47,0,0,0-.43.21l-.27.17c-1.17.87.22,1.79.22,1.79a16.67,16.67,0,0,0,2,1.11,77.87,77.87,0,0,0,9.32,3.43,12.22,12.22,0,0,0,4.7,1.09h.09Z" style="fill:none"/><path d="M59.93,53.42l0,0h0Z" style="fill:none"/><path d="M153.18,54.22S144.27,27.34,117.29,15c0,0-14.84-5.53-21.3,7.7a14,14,0,0,0-.59,2.14c-.07.33-.13.7-.19,1.09a20.61,20.61,0,0,0-.2,2.65h0a15.25,15.25,0,0,0,3.09,9.49c.27.34.54.68.84,1h0a18.81,18.81,0,0,0,4.76,3.68h0l.6.32,1,.51a45.69,45.69,0,0,1,5.2,2.43A70.51,70.51,0,0,1,116.78,50q1.74,1.22,3.56,2.67a65.67,65.67,0,0,1,24.59,44.86c.23,2.41.37,4.89.37,7.49l.12-.07V105a.73.73,0,0,0,0-.08l.5-.34C149.27,102.21,164.26,89.25,153.18,54.22Z" style="fill:none"/><path d="M85.73,62.34H86a11.23,11.23,0,0,0,4.53-.92l.42-.16,1.31-.41c.52-.16,1.18-.38,1.89-.62l.15,0A58.15,58.15,0,0,0,99.84,58c.62-.28,1.2-.57,1.71-.86l0,0h0c1.43-.69,1.5-1.31,1.24-1.75a1.42,1.42,0,0,0-.58-.56l-.17-.1h0l-.28-.14-.15,0a42.88,42.88,0,0,0-5.84-1.61c-.46-.11-1-.21-1.44-.3l-.54-.11-.28,0h0a42.25,42.25,0,0,0-7.59-.77,49.4,49.4,0,0,0-12.11,1.78c-2.27.59-3.74,1.11-3.74,1.11a3.47,3.47,0,0,0-.43.21l-.27.17c-1.17.87.22,1.79.22,1.79a16.67,16.67,0,0,0,2,1.11,77.87,77.87,0,0,0,9.32,3.43,12.22,12.22,0,0,0,4.7,1.09h.09Z" style="fill:none"/><path d="M18.17,54.29c-12.4,39.21,7.89,50.78,7.89,50.78,0-1.15,0-2.27.09-3.39a72.8,72.8,0,0,1,2.12-13.87A37.47,37.47,0,0,0,27.91,93v3.52l1.06.19c-.11,1.42-.18,2.84-.18,4.29A56.85,56.85,0,0,0,140.6,115.52l3.78,2,1-5.64a44.64,44.64,0,0,0,.54-7.28c3.33-2.37,18.32-15.33,7.24-50.36,0,0-8.91-26.88-35.89-39.23,0,0-14.84-5.53-21.3,7.7a14,14,0,0,0-.59,2.14c-.07.33-.13.7-.19,1.09a20.61,20.61,0,0,0-.2,2.65h0a15.25,15.25,0,0,0,3.09,9.49c.27.34.54.68.84,1h0a18.81,18.81,0,0,0,4.76,3.68h0l.6.32,1,.51a45.69,45.69,0,0,1,5.2,2.43A70.51,70.51,0,0,1,116.78,50q1.74,1.22,3.56,2.67a46.68,46.68,0,0,1,8.57,10.17l-.4.17-.43.18-1,.43-.61.26-.81.33-.84.35v0c.13.66.29,1.41.48,2.22C127,73.88,130.94,85.88,139.44,93c.43.37.87.72,1.33,1l.33.24q.54.38,1.08.72l.19.13-.15.24-.88,1.42-.12.19-1.07,1.72-.18-.12c-11.51-7.26-16.56-21.64-18.61-30.19-.2-.8-.37-1.55-.51-2.24v0c-3.38,1.24-6.67,2.28-9.88,3.15l-1.72.44L107.9,70l-.12.05c-3.13,1.2-6.19,2.25-9.18,3.19-1.86.58-3.69,1.1-5.5,1.59-29.68,8-51.4,3.68-56.41,2.45l-.08,0L36,77.09,35.68,77h-.06l1.16-4s.36.1.93.23l.38.09.69.15c4.65,1,17.18,3,34.44.89L75.7,74c2.06-.29,4.18-.63,6.36-1l1-.19.13,0-1,0c-7-.45-20.85-1.83-31.55-5.93-2.16-.87-3.91-1.7-5.22-2.37l-.22-.12-.75-.39-1.18-.67-.06,0-.62-.37.74-1.5c11.87-9.63,22.48-15.24,31.83-18.09-1,.76-2,1.6-3,2.51l-.47.41c-.56.49-1.14,1-1.72,1.53s-1.34,1.23-2,1.88a1.59,1.59,0,0,1-.13.13l0,0c-.15.14-.3.28-.44.43l-.73.7c-.62.62-1.25,1.25-1.88,1.91a29.79,29.79,0,0,1,3.47-1.29,59.6,59.6,0,0,1,17.8-2.56c1.92,0,3.73.09,5.42.23a52.86,52.86,0,0,1,14.85,3.2l.7.29.15.07.07,0,.07,0-.13-.14c-.79-.86-1.61-1.7-2.44-2.51l-.21-.21-1.58-1.5-.75-.68c-.69-.62-1.37-1.22-2-1.78l-.83-.7c-1.34-1.12-2.55-2.07-3.51-2.81S94,41.16,93.69,41l-.17-.13h0A58.86,58.86,0,0,0,88,37.25a3.72,3.72,0,0,0-2.11-.41,3.67,3.67,0,0,0-2.11.41A68.24,68.24,0,0,0,75.41,43c-10.56,2.26-20.83,7.57-30.63,15.9a42,42,0,0,0-3.42,3.25A70.6,70.6,0,0,1,59.87,46.62a47.72,47.72,0,0,1,6.15-3c14.8-6.84,9.35-20.9,9.35-20.9-6.46-13.24-21.3-7.7-21.3-7.7C27.09,27.41,18.17,54.29,18.17,54.29Z" style="fill:none"/><path d="M59.93,53.42l0,0h0Z" style="fill:none"/><path d="M32.17,91.1c0,.61-.05,1.23-.05,1.85a82.84,82.84,0,0,0,13.42.92,125.1,125.1,0,0,0,73.62-24.21S116.34,96.4,139.26,110a53.88,53.88,0,0,0,.77-9c0-.8,0-1.6-.06-2.39-11.51-7.26-16.56-21.64-18.61-30.19-.2-.8-.37-1.55-.51-2.24v0c-3.38,1.24-6.67,2.28-9.88,3.15l-1.72.44L107.9,70l-.12.05c-3.13,1.2-6.19,2.25-9.18,3.19-1.86.58-3.69,1.1-5.5,1.59-29.68,8-51.4,3.68-56.41,2.45-.27.57-.53,1.15-.78,1.72A53.89,53.89,0,0,0,32.17,91.1Z" style="fill:none"/><path d="M45.34,64.38a32.3,32.3,0,0,0-2.24,2.74h0a51.56,51.56,0,0,0-4.33,6.29c4.65,1,17.18,3,34.44.89L75.7,74c2.06-.29,4.18-.63,6.36-1l1-.19.13,0-1,0c-7-.45-20.85-1.83-31.55-5.93-2.16-.87-3.91-1.7-5.22-2.37h0Z" style="fill:none"/><path d="M127.24,66l-.11-.12-1.38-1.68-.06,0h0l-.84.35v0c.13.66.29,1.41.48,2.22C127,73.88,130.94,85.88,139.44,93a54.21,54.21,0,0,0-12.2-27Z" style="fill:none"/><path d="M116.74,86.56a55,55,0,0,1-1.65-9l-.17.11.06-.08A137.08,137.08,0,0,1,76.14,94.27l-.07,0-1.54.37a129,129,0,0,1-29,3.41,87.59,87.59,0,0,1-14.13-1v.1c0,.16,0,.32,0,.49-.07,1.08-.11,2.16-.11,3.26a54.08,54.08,0,0,0,9.08,30l.35.52a54.72,54.72,0,0,0,19.88,17.67,54.22,54.22,0,0,0,50.28-.06,54.87,54.87,0,0,0,18.31-15.59c.64-.85,1.25-1.73,1.84-2.63a53.89,53.89,0,0,0,7.36-16.59A44.34,44.34,0,0,1,116.74,86.56Z" style="fill:none"/><path d="M72.09,45.74l-.47.41c-.56.49-1.14,1-1.72,1.53s-1.34,1.23-2,1.88a1.59,1.59,0,0,1-.13.13l0,0c-.15.14-.3.28-.44.43l-.73.7c-.62.62-1.25,1.25-1.88,1.91a29.79,29.79,0,0,1,3.47-1.29,59.6,59.6,0,0,1,17.8-2.56c1.92,0,3.73.09,5.42.23a52.86,52.86,0,0,1,14.85,3.2l.7.29.15.07.07,0,.07,0-.13-.14c-.79-.86-1.61-1.7-2.44-2.51l-.21-.21-1.58-1.5-.75-.68c-.69-.62-1.37-1.22-2-1.78l-.83-.7c-1.34-1.12-2.55-2.07-3.51-2.81S94,41.16,93.69,41l-.17-.13h0A58.86,58.86,0,0,0,88,37.25a3.72,3.72,0,0,0-2.11-.41,3.67,3.67,0,0,0-2.11.41A68.24,68.24,0,0,0,75.41,43l-.27.21C74.18,44,73.16,44.83,72.09,45.74Z" style="fill:none"/><path d="M59.87,46.62a47.72,47.72,0,0,1,6.15-3c14.8-6.84,9.35-20.9,9.35-20.9-6.46-13.24-21.3-7.7-21.3-7.7-27,12.35-35.9,39.23-35.9,39.23-12.4,39.21,7.89,50.78,7.89,50.78,0-1.15,0-2.27.09-3.39a72.8,72.8,0,0,1,2.12-13.87A64.52,64.52,0,0,1,41.36,62.17,70.6,70.6,0,0,1,59.87,46.62Z" style="fill:none"/><path d="M85.73,62.34H86a11.23,11.23,0,0,0,4.53-.92l.42-.16,1.31-.41c.52-.16,1.18-.38,1.89-.62l.15,0A58.15,58.15,0,0,0,99.84,58c.62-.28,1.2-.57,1.71-.86l0,0h0c1.43-.69,1.5-1.31,1.24-1.75a1.42,1.42,0,0,0-.58-.56l-.17-.1h0l-.28-.14-.15,0a42.88,42.88,0,0,0-5.84-1.61c-.46-.11-1-.21-1.44-.3l-.54-.11-.28,0h0a42.25,42.25,0,0,0-7.59-.77,49.4,49.4,0,0,0-12.11,1.78c-2.27.59-3.74,1.11-3.74,1.11a3.47,3.47,0,0,0-.43.21l-.27.17c-1.17.87.22,1.79.22,1.79a16.67,16.67,0,0,0,2,1.11,77.87,77.87,0,0,0,9.32,3.43,12.22,12.22,0,0,0,4.7,1.09h.09Z" style="fill:none"/><path d="M59.93,53.42l0,0h0Z" style="fill:none"/><path d="M153.18,54.22S144.27,27.34,117.29,15c0,0-14.84-5.53-21.3,7.7a14,14,0,0,0-.59,2.14c-.07.33-.13.7-.19,1.09a20.61,20.61,0,0,0-.2,2.65h0a15.25,15.25,0,0,0,3.09,9.49c.27.34.54.68.84,1h0a18.81,18.81,0,0,0,4.76,3.68h0l.6.32,1,.51a45.69,45.69,0,0,1,5.2,2.43A70.51,70.51,0,0,1,116.78,50q1.74,1.22,3.56,2.67a65.67,65.67,0,0,1,24.59,44.86c.23,2.41.37,4.89.37,7.49l.12-.07V105a.73.73,0,0,0,0-.08l.5-.34C149.27,102.21,164.26,89.25,153.18,54.22Z" style="fill:none"/><path d="M64.66,32.13a4.72,4.72,0,1,0-4.82-4.72A4.77,4.77,0,0,0,64.66,32.13Z" style="fill:#010101"/><path d="M108.6,23a4.71,4.71,0,1,0,1.64,7.51,4.62,4.62,0,0,0,1.28-3.17A4.71,4.71,0,0,0,108.6,23Z" style="fill:#010101"/><path d="M112.76,5.54A81.72,81.72,0,0,0,51.23,8.72,80.39,80.39,0,0,0,4.76,81.36c0,44.31,36.4,80.35,81.14,80.35S167,125.67,167,81.36C167,46.37,144.34,16.55,112.76,5.54ZM85.93,36.84a3.72,3.72,0,0,1,2.11.41,58.86,58.86,0,0,1,5.48,3.58h0l.17.13c.3.21,1,.73,2,1.49s2.17,1.69,3.51,2.81l.83.7c.67.56,1.35,1.16,2,1.78l.75.68,1.58,1.5.21.21c.83.81,1.65,1.65,2.44,2.51l.13.14-.07,0-.07,0-.15-.07-.7-.29a52.86,52.86,0,0,0-14.85-3.2c-1.69-.14-3.5-.23-5.42-.23a59.6,59.6,0,0,0-17.8,2.56,29.79,29.79,0,0,0-3.47,1.29c.63-.66,1.26-1.29,1.88-1.91l.73-.7c.14-.15.29-.29.44-.43l0,0a1.59,1.59,0,0,0,.13-.13c.68-.65,1.36-1.28,2-1.88s1.16-1,1.72-1.53l.47-.41c1.07-.91,2.09-1.75,3-2.51l.27-.21a68.24,68.24,0,0,1,8.41-5.77A3.67,3.67,0,0,1,85.93,36.84Zm24.92,112.28a54.22,54.22,0,0,1-50.28.06,54.72,54.72,0,0,1-19.88-17.67l-.35-.52a54.08,54.08,0,0,1-9.08-30c0-1.1,0-2.18.11-3.26,0-.17,0-.33,0-.49v-.1a87.59,87.59,0,0,0,14.13,1,129,129,0,0,0,29-3.41l1.54-.37.07,0A137.08,137.08,0,0,0,115,77.58l-.06.08.17-.11a55,55,0,0,0,1.65,9,44.34,44.34,0,0,0,21.62,27.75A53.89,53.89,0,0,1,131,130.9c-.59.9-1.2,1.78-1.84,2.63A54.87,54.87,0,0,1,110.85,149.12ZM125.69,64.2l.06,0,1.38,1.68.11.12h0a54.21,54.21,0,0,1,12.2,27c-8.5-7.09-12.44-19.09-14.11-26.18-.19-.81-.35-1.56-.48-2.22v0l.84-.35Zm-4.84,1.93c.14.69.31,1.44.51,2.24,2,8.55,7.1,22.93,18.61,30.19,0,.79.06,1.59.06,2.39a53.88,53.88,0,0,1-.77,9c-22.92-13.59-20.1-40.33-20.1-40.33A125.1,125.1,0,0,1,45.54,93.87,82.84,82.84,0,0,1,32.12,93c0-.62,0-1.24.05-1.85A53.89,53.89,0,0,1,35.91,79c.25-.57.51-1.15.78-1.72,5,1.23,26.73,5.54,56.41-2.45,1.81-.49,3.64-1,5.5-1.59,3-.94,6.05-2,9.18-3.19l.12-.05,1.34-.32,1.72-.44c3.21-.87,6.5-1.91,9.88-3.15ZM59.93,53.42l0,0h0ZM43.11,67.13h0a32.3,32.3,0,0,1,2.24-2.74l.06,0h0c1.31.67,3.06,1.5,5.22,2.37,10.7,4.1,24.55,5.48,31.55,5.93l1,0-.13,0-1,.19c-2.18.41-4.3.75-6.36,1l-2.48.32c-17.26,2.06-29.79.07-34.44-.89A51.56,51.56,0,0,1,43.11,67.13Zm50.41-14.7h0l.28,0,.54.11c.49.09,1,.19,1.44.3a42.88,42.88,0,0,1,5.84,1.61l.15,0,.28.14h0l.17.1a1.42,1.42,0,0,1,.58.56c.26.44.19,1.06-1.24,1.75h0l0,0c-.51.29-1.09.58-1.71.86a58.15,58.15,0,0,1-5.58,2.17l-.15,0c-.71.24-1.37.46-1.89.62l-1.31.41-.42.16a11.23,11.23,0,0,1-4.53.92h-.32a12.22,12.22,0,0,1-4.7-1.09,77.87,77.87,0,0,1-9.32-3.43,16.67,16.67,0,0,1-2-1.11s-1.39-.92-.22-1.79l.27-.17a3.47,3.47,0,0,1,.43-.21s1.47-.52,3.74-1.11a49.4,49.4,0,0,1,12.11-1.78,42.25,42.25,0,0,1,7.59.77ZM26.06,105.07S5.77,93.5,18.17,54.29c0,0,8.92-26.88,35.9-39.23,0,0,14.84-5.54,21.3,7.7,0,0,5.45,14.06-9.35,20.9a47.72,47.72,0,0,0-6.15,3A70.6,70.6,0,0,0,41.36,62.17,64.52,64.52,0,0,0,28.27,87.81a72.8,72.8,0,0,0-2.12,13.87C26.1,102.8,26.06,103.92,26.06,105.07Zm119.88-.49-.5.34a.73.73,0,0,1,0,.08v-.07l-.12.07c0-2.6-.14-5.08-.37-7.49a65.67,65.67,0,0,0-24.59-44.86q-1.82-1.45-3.56-2.67A70.51,70.51,0,0,0,110.53,46a45.69,45.69,0,0,0-5.2-2.43l-1-.51-.6-.32h0A18.81,18.81,0,0,1,99,39.09h0c-.3-.33-.57-.67-.84-1A15.25,15.25,0,0,1,95,28.58h0a20.61,20.61,0,0,1,.2-2.65c.06-.39.12-.76.19-1.09A14,14,0,0,1,96,22.69c6.46-13.23,21.3-7.7,21.3-7.7,27,12.35,35.89,39.23,35.89,39.23C164.26,89.25,149.27,102.21,145.94,104.58Z" style="fill:#010101"/><path d="M77.94,42.83a5.3,5.3,0,0,0-1.83,2.08s0,.08,0,.12a.91.91,0,0,0,0,.77.88.88,0,0,0,.71.28,2.62,2.62,0,0,0,.87-.14A6.29,6.29,0,0,0,79.51,45a8.66,8.66,0,0,0,.78-.65l0,0c.89-.86,1.33-1.76,1-2.25a0,0,0,0,1,0,0,.72.72,0,0,0-.44-.25,3.06,3.06,0,0,0-1.89.4,5.2,5.2,0,0,0-.46.25A6.92,6.92,0,0,0,77.94,42.83Z" style="fill:#fff3b6"/><path d="M94.15,42.22a10.64,10.64,0,0,1,.51,2.19c0,.14,0,.28,0,.42,0,.42.06.83.06,1.21,0,.18,0,.35,0,.52s0,.53-.06.78v0a12.11,12.11,0,0,1-.38,2.07,42.22,42.22,0,0,1,12,2.93l.61.26.15.07.07,0,.07,0-.13-.14c-.79-.86-1.61-1.7-2.44-2.51l-.21-.21-1.58-1.5-.75-.68c-.69-.62-1.37-1.22-2-1.78l-.83-.7c-1.34-1.12-2.55-2.07-3.51-2.81S94,41.16,93.69,41l-.17-.13h0l.06.11A9.63,9.63,0,0,1,94.15,42.22Z" style="fill:#f3961f"/><path d="M93.52,52.43h0l.28,0Z" style="fill:#ec8a23"/><path d="M89.14,59.55a1.14,1.14,0,0,0-.11.11q-.51.5-1,.9a19.07,19.07,0,0,1-2.4,1.79H86a15.29,15.29,0,0,0,4.53-.92l.42-.16,1.29-.41,1.86-.62.15,0c2.48-.86,4.32-1.62,5.55-2.17,1-.46,1.61-.77,1.79-.86l0,0h0c1.43-.69,1.5-1.31,1.24-1.75a1.79,1.79,0,0,0-.58-.56l-.17-.1h0l-.43-.19a42.88,42.88,0,0,0-5.84-1.61c-.57-.13-1.06-.23-1.44-.3l-.54-.11-.28,0a14.26,14.26,0,0,1-2.38,4.81A19.44,19.44,0,0,1,89.14,59.55Z" style="fill:#ec8a23"/><path d="M59.87,46.62a52.88,52.88,0,0,1,7.85-3.85C14.23,61.25,26,105,26,105c0-1.12.07-2.23.14-3.32a72.8,72.8,0,0,1,2.12-13.87A64.52,64.52,0,0,1,41.36,62.17,70.6,70.6,0,0,1,59.87,46.62Z" style="fill:#c1c1c6"/></svg>