<svg id="b7947d9a-cb76-4b49-8b42-3a0e7eb809d7" data-name="Layer 3" xmlns="http://www.w3.org/2000/svg" viewBox="0 0 198.85 198.85"><title>census-Artboard 4</title><path d="M115.52,47.58h0Z" style="fill:none"/><path d="M110.91,31.34c.07-.48.15-.93.24-1.34C111.06,30.41,111,30.86,110.91,31.34Z" style="fill:none"/><path d="M110.66,34.61a24.33,24.33,0,0,1,.25-3.27A24.33,24.33,0,0,0,110.66,34.61Z" style="fill:none"/><path d="M114.48,46.33a18.83,18.83,0,0,1-3.82-11.71A18.83,18.83,0,0,0,114.48,46.33Z" style="fill:none"/><path d="M108.82,64h0l.35.06Z" style="fill:none"/><polygon points="121.4 52.12 121.4 52.12 121.4 52.12 121.4 52.12" style="fill:none"/><path d="M67.34,65.29h0l0,0Z" style="fill:none"/><path d="M70.4,175a17.22,17.22,0,0,1-1.22,6.36c15,7.39,35.64,11.31,59.81-.73a17.19,17.19,0,0,1,16.27-22.85,17.07,17.07,0,0,1,9.8,3.1,67,67,0,0,0,9.08-20.46,54.66,54.66,0,0,1-26.67-34.24,66.43,66.43,0,0,1-2-11.12l-.22.14c-1.58,2-27.1,32.34-103,29.13a35.49,35.49,0,0,1,0-4.42c-.08,1.33-.13,2.67-.13,4a66.64,66.64,0,0,0,11.19,37.05A17.19,17.19,0,0,1,70.4,175Zm66.36-44.18a8.13,8.13,0,1,1-8.12,8.12A8.13,8.13,0,0,1,136.76,130.78ZM78.63,154.63a3.73,3.73,0,0,1,5.25.37c.1.11,7.1,8,15.87,8h0c5,0,9.93-2.69,14.48-8a3.73,3.73,0,1,1,5.64,4.88c-6,7-12.83,10.53-20.16,10.53-12.23,0-21.12-10.1-21.49-10.53A3.73,3.73,0,0,1,78.63,154.63ZM60.16,130.78A8.13,8.13,0,1,1,52,138.9,8.13,8.13,0,0,1,60.16,130.78Z" style="fill:#fdcca0"/><path d="M85.4,116.13a158.62,158.62,0,0,1-35.77,4.22,109.21,109.21,0,0,1-17.42-1.2.45.45,0,0,1,0,.11C32.53,119.33,54.59,123.55,85.4,116.13Z" style="fill:#fdcca0"/><path d="M60.16,147A8.13,8.13,0,1,0,52,138.9,8.13,8.13,0,0,0,60.16,147Z" style="fill:#000101"/><path d="M99.75,170.42c7.33,0,14.11-3.54,20.16-10.53a3.73,3.73,0,1,0-5.64-4.88c-4.55,5.27-9.43,7.94-14.48,8h0C91,163,84,155.11,83.88,155a3.72,3.72,0,1,0-5.62,4.89C78.63,160.32,87.52,170.42,99.75,170.42Z" style="fill:#000101"/><path d="M136.76,147a8.13,8.13,0,1,0-8.12-8.13A8.13,8.13,0,0,0,136.76,147Z" style="fill:#000101"/><path d="M55.9,81.75c-2.66-1.08-4.81-2.11-6.43-2.93h0A54.36,54.36,0,0,0,55.9,81.75Z" style="fill:#f2862f"/><path d="M41.29,89.93C47,91.12,62.5,93.57,83.78,91c-25.19-2-36.93-8.74-37.14-8.86A67.17,67.17,0,0,0,41.29,89.93Z" style="fill:#f2862f"/><path d="M148.07,81.75c2.05,8.75,6.92,23.56,17.39,32.3a66.75,66.75,0,0,0-15-33.3C149.63,81.1,148.85,81.42,148.07,81.75Z" style="fill:#f2862f"/><path d="M142.52,80.88c-4.16,1.52-8.23,2.81-12.18,3.88,4.93-1.31,9.09-2.69,12.2-3.82C142.53,80.92,142.53,80.9,142.52,80.88Z" style="fill:#f2862f"/><path d="M148.5,78.55l-1,.43v0l1-.45Z" style="fill:#f2862f"/><path d="M37.76,96.81a66.7,66.7,0,0,0-4.61,14.93c0,.75-.07,1.51-.07,2.29a102.72,102.72,0,0,0,16.55,1.13A154.33,154.33,0,0,0,140.45,85.3s-3.48,33,24.8,49.74a67.2,67.2,0,0,0,.94-11.15c0-1,0-2-.07-3-14.2-9-20.42-26.69-23-37.23a130.38,130.38,0,0,1-33.61,7.83C68.72,104.39,39.3,97.2,37.76,96.81Z" style="fill:#f2862f"/><path d="M32.18,124.29c75.94,3.21,101.46-27.16,103-29.13l.08-.1a169.18,169.18,0,0,1-47.92,20.6l-.08,0-1.9.45c-30.81,7.42-52.87,3.2-53.2,3.13,0,.21,0,.41,0,.61A35.49,35.49,0,0,0,32.18,124.29Z" style="fill:#d8a27d"/><path d="M85.4,116.13l1.9-.45" style="fill:none;stroke:#d8a27d;stroke-linecap:round;stroke-linejoin:round;stroke-width:0px"/><path d="M109.55,91.54a130.38,130.38,0,0,0,33.61-7.83c-.24-1-.45-1.92-.62-2.77-3.11,1.13-7.27,2.51-12.2,3.82-.72.2-1.42.36-2.13.54l-1.65.41-.14.05c-3.86,1.49-7.64,2.78-11.33,3.94-2.3.71-4.55,1.36-6.78,2-36.62,9.86-63.41,4.54-69.58,3-.34.7-.66,1.41-1,2.12C39.3,97.2,68.72,104.39,109.55,91.54Z" style="fill:#b25226"/><path d="M128,175a17.24,17.24,0,0,0,1,5.63,109.24,109.24,0,0,0,23.79-16.5c.8-1.06,1.55-2.15,2.28-3.25A17.18,17.18,0,0,0,128,175Z" style="fill:#f48c9c"/><path d="M69.18,181.32a17.2,17.2,0,0,0-26-20.38l.43.65A83.65,83.65,0,0,0,69.18,181.32Z" style="fill:#f48c9c"/><path d="M130.2,183.31a67.66,67.66,0,0,0,22.58-19.22A109.24,109.24,0,0,1,129,180.59c-24.17,12-44.82,8.12-59.81.73a83.65,83.65,0,0,1-25.53-19.73,67.56,67.56,0,0,0,24.53,21.8,66.83,66.83,0,0,0,62-.08Z" style="fill:#d8a27d"/><path d="M43.16,161h0" style="fill:none;stroke:#000101;stroke-linecap:round;stroke-linejoin:round;stroke-width:0px"/><path d="M77,52.12a65.48,65.48,0,0,0-9.67,4.75,57.56,57.56,0,0,1,7.59-3.64c18.25-8.44,11.52-25.79,11.52-25.79C78.47,11.11,60.16,18,60.16,18,26.88,33.18,15.88,66.33,15.88,66.33.58,114.7,25.6,129,25.6,129c0-1.43.06-2.81.12-4.18-.08,1.34-.14,2.7-.17,4.1C25.55,128.9,11,74.93,77,52.12ZM73.22,27.36a5.82,5.82,0,1,1-5.94,5.82A5.89,5.89,0,0,1,73.22,27.36Z" style="fill:#f9f9fa"/><path d="M120.34,67.67a1.89,1.89,0,0,0-.73-.7A2.28,2.28,0,0,1,120.34,67.67Z" style="fill:#f5ac1f"/><path d="M105.09,75.13a19,19,0,0,1-5.59,1.14A14,14,0,0,0,105.09,75.13Z" style="fill:#f5ac1f"/><path d="M119,66.66l-.19-.06c.19.07.37.15.54.23Z" style="fill:#f5ac1f"/><path d="M109.83,64.23l1.79.38Z" style="fill:#f5ac1f"/><path d="M79.32,69.34a20.68,20.68,0,0,0,2.49,1.36,95.67,95.67,0,0,0,11.5,4.23,14.69,14.69,0,0,0,5.8,1.34,23.15,23.15,0,0,0,3-2.2c.39-.33.79-.7,1.21-1.11a.93.93,0,0,0,.14-.14A22.91,22.91,0,0,0,105.89,70,17.42,17.42,0,0,0,108.82,64a52.27,52.27,0,0,0-9.36-.94,61.47,61.47,0,0,0-14.93,2.18c-2.81.74-4.62,1.38-4.62,1.38a4.38,4.38,0,0,0-.53.26,2.37,2.37,0,0,0-.33.21C77.61,68.2,79.32,69.34,79.32,69.34Z" style="fill:#f5ac1f"/><path d="M109.67,73.6l-.18.06c-.73.25-1.48.51-2.3.77l-1.58.5s.62-.18,1.61-.5c.64-.2,1.45-.46,2.34-.76l.18-.07c2.12-.72,4.7-1.67,6.89-2.67.76-.35,1.47-.71,2.09-1.06-.21.11-.94.49-2.2,1C115,71.6,112.73,72.54,109.67,73.6Z" style="fill:#f5ac1f"/><path d="M82.39,55.79l-.58.51-2.13,1.88c-.81.74-1.64,1.52-2.49,2.33l-.16.15,0,.05-.54.53-.9.86c-.76.76-1.54,1.55-2.32,2.37a36.78,36.78,0,0,1,4.29-1.6,73.5,73.5,0,0,1,21.95-3.15c2.38,0,4.6.11,6.69.28a65.56,65.56,0,0,1,18.32,4l.85.35-.75-.32a51.78,51.78,0,0,0-14.77-3.61,15.77,15.77,0,0,0,.46-2.56v-.05c0-.3,0-.62.07-1s0-.42,0-.64c0-.47,0-1-.07-1.5,0-.17,0-.34,0-.51a13,13,0,0,0-.63-2.7,11.54,11.54,0,0,0-.7-1.58.91.91,0,0,1-.07-.14,72.86,72.86,0,0,0-6.77-4.41,6.91,6.91,0,0,0-5.21,0,84,84,0,0,0-10.37,7.12l-.33.26C85,53.63,83.7,54.67,82.39,55.79ZM97,56.87h0ZM94.57,57l-.63.05Zm-1.31-6.07a.88.88,0,0,1,.53.31l0,.05c.37.59-.17,1.71-1.26,2.77l0,0a8.71,8.71,0,0,1-1,.81A8.23,8.23,0,0,1,89.3,56a3.43,3.43,0,0,1-1.07.17.88.88,0,0,1-.93-1.3l0-.14a6.41,6.41,0,0,1,2.26-2.57,7.85,7.85,0,0,1,.75-.48l.56-.31A3.9,3.9,0,0,1,93.26,50.91Z" style="fill:#f8c122"/><path d="M94.57,57l-.63.05" style="fill:none;stroke:#f8c122;stroke-linecap:round;stroke-linejoin:round;stroke-width:0px"/><path d="M96.54,56.88H97" style="fill:none;stroke:#f8c122;stroke-linecap:round;stroke-linejoin:round;stroke-width:0px"/><path d="M49.39,78.78a42.31,42.31,0,0,0-2.76,3.38h0c.21.12,12,6.84,37.14,8.86,1-.12,2-.25,3.07-.4,2.54-.35,5.15-.77,7.84-1.28l1.21-.23.16,0-1.24,0c-8.64-.55-25.72-2.25-38.92-7.3a54.36,54.36,0,0,1-6.43-2.93A.2.2,0,0,0,49.39,78.78Z" style="fill:#b25226"/><path d="M111.87,27.36a17.48,17.48,0,0,0-.72,2.64c-.09.41-.17.86-.24,1.34a24.33,24.33,0,0,0-.25,3.27h0a18.83,18.83,0,0,0,3.82,11.71c.32.42.66.83,1,1.24h0a22.83,22.83,0,0,0,5.88,4.54h0c56.62,19.58,53.94,62.1,52,73.76-.26,1.6-.5,2.61-.58,2.91.13-.08.34-.22.61-.42,4.11-2.92,22.61-18.9,8.94-62.12,0,0-11-33.15-44.27-48.39C138.15,17.86,119.83,11,111.87,27.36Zm13.21-.09a6.09,6.09,0,0,1,2.35.48A5.82,5.82,0,0,1,131,33.1,5.73,5.73,0,0,1,129.45,37a6,6,0,0,1-4.37,1.9,5.83,5.83,0,1,1,0-11.65Z" style="fill:#f9f9fa"/><path d="M121.4,52.12l.73.4c.41.21.82.42,1.27.63a55.15,55.15,0,0,1,6.4,3c-2.51-1.41-4.61-2.41-6.08-3.07S121.41,52.13,121.4,52.12Z" style="fill:#f9f9fa"/><path d="M172.7,128.9l.14-.09c-.06-3.17-.27-6.22-.6-9.16C172.52,122.62,172.7,125.69,172.7,128.9Z" style="fill:#f9f9fa"/><path d="M150.42,80.75l-.13-.15-1.71-2.07-.08,0-1,.45c.16.82.36,1.74.6,2.74.78-.33,1.56-.65,2.35-1Z" style="fill:#b25226"/><line x1="121.4" y1="52.12" x2="121.4" y2="52.12" style="fill:none;stroke:#c1c1c6;stroke-linecap:round;stroke-linejoin:round;stroke-width:0px"/><path d="M172.24,119.65c.33,2.94.54,6,.6,9.16v.09a1,1,0,0,1,0-.11c.08-.3.32-1.31.58-2.91,1.89-11.66,4.57-54.18-52-73.76,0,0,.85.31,2.32,1s3.57,1.66,6.08,3.07A87.94,87.94,0,0,1,137.52,61c1.42,1,2.89,2.1,4.38,3.3A81,81,0,0,1,172.24,119.65Z" style="fill:#c1c1c6"/><path d="M33.15,111.74c0,.75-.07,1.51-.07,2.29a102.72,102.72,0,0,0,16.55,1.13A154.33,154.33,0,0,0,140.45,85.3s-3.48,33,24.8,49.74a67.2,67.2,0,0,0,.94-11.15c0-1,0-2-.07-3-14.2-9-20.42-26.69-23-37.23-.24-1-.45-1.92-.62-2.77,0,0,0,0,0-.06-4.16,1.52-8.23,2.81-12.18,3.88-.72.2-1.42.36-2.13.54l-1.65.41-.14.05c-3.86,1.49-7.64,2.78-11.33,3.94-2.3.71-4.55,1.36-6.78,2-36.62,9.86-63.41,4.54-69.58,3-.34.7-.66,1.41-1,2.12A66.7,66.7,0,0,0,33.15,111.74Z" style="fill:none"/><path d="M137.47,106.14a66.43,66.43,0,0,1-2-11.12l-.22.14.08-.1a169.18,169.18,0,0,1-47.92,20.6l-.08,0-1.9.45a158.62,158.62,0,0,1-35.77,4.22,109.21,109.21,0,0,1-17.42-1.2.45.45,0,0,1,0,.11c0,.21,0,.41,0,.61-.08,1.33-.13,2.67-.13,4a66.64,66.64,0,0,0,11.19,37.05l.43.65a67.56,67.56,0,0,0,24.53,21.8,66.83,66.83,0,0,0,62-.08,67.66,67.66,0,0,0,22.58-19.22c.8-1.06,1.55-2.15,2.28-3.25a67,67,0,0,0,9.08-20.46A54.66,54.66,0,0,1,137.47,106.14Z" style="fill:none"/><path d="M49.39,78.78a42.31,42.31,0,0,0-2.76,3.38h0a67.17,67.17,0,0,0-5.35,7.76C47,91.12,62.5,93.57,83.78,91c1-.12,2-.25,3.07-.4,2.54-.35,5.15-.77,7.84-1.28l1.21-.23.16,0-1.24,0c-8.64-.55-25.72-2.25-38.92-7.3-2.66-1.08-4.81-2.11-6.43-2.93h0A.2.2,0,0,0,49.39,78.78Z" style="fill:none"/><path d="M150.42,80.75l-.13-.15-1.71-2.07-.08,0h0l-1,.43v0c.16.82.36,1.74.6,2.74,2.05,8.75,6.92,23.56,17.39,32.3a66.75,66.75,0,0,0-15-33.3Z" style="fill:none"/><path d="M67.32,56.87a57.56,57.56,0,0,1,7.59-3.64c18.25-8.44,11.52-25.79,11.52-25.79C78.47,11.11,60.16,18,60.16,18,26.88,33.18,15.88,66.33,15.88,66.33.58,114.7,25.6,129,25.6,129c0-1.43.06-2.81.12-4.18a90.27,90.27,0,0,1,2.61-17.11A79.75,79.75,0,0,1,44.48,76.06,87.29,87.29,0,0,1,67.32,56.87Z" style="fill:none"/><path d="M82.39,55.79l-.58.51-2.13,1.88c-.81.74-1.64,1.52-2.49,2.33l-.16.15,0,.05-.54.53-.9.86c-.76.76-1.54,1.55-2.32,2.37a36.78,36.78,0,0,1,4.29-1.6,73.5,73.5,0,0,1,21.95-3.15c2.38,0,4.6.11,6.69.28a65.56,65.56,0,0,1,18.32,4l.85.35.19.09.09,0,.09,0-.17-.18c-1-1.06-2-2.1-3-3.1l-.27-.26c-.64-.63-1.3-1.25-2-1.85l-.91-.83c-.86-.77-1.7-1.51-2.52-2.2l-1-.87c-1.66-1.38-3.15-2.55-4.33-3.46s-2.11-1.58-2.48-1.84l-.22-.15h0a72.86,72.86,0,0,0-6.77-4.41,6.91,6.91,0,0,0-5.21,0,84,84,0,0,0-10.37,7.12l-.33.26C85,53.63,83.7,54.67,82.39,55.79Z" style="fill:none"/><path d="M99.21,76.27h.29a14,14,0,0,0,5.59-1.14l.52-.2s.62-.18,1.61-.5c.64-.2,1.45-.46,2.34-.76l.18-.07c2.12-.72,4.7-1.67,6.89-2.67.76-.35,1.47-.71,2.09-1.06l.07,0h0c1.76-.85,1.86-1.62,1.54-2.16a1.89,1.89,0,0,0-.73-.7l-.2-.12h-.06l-.35-.17-.19-.06a52,52,0,0,0-7.19-2l-1.79-.38-.66-.13-.35-.06h0a52.27,52.27,0,0,0-9.36-.94,61.47,61.47,0,0,0-14.93,2.18c-2.81.74-4.62,1.38-4.62,1.38a4.38,4.38,0,0,0-.53.26,2.37,2.37,0,0,0-.33.21c-1.44,1.07.27,2.21.27,2.21a20.68,20.68,0,0,0,2.49,1.36,95.67,95.67,0,0,0,11.5,4.23,14.69,14.69,0,0,0,5.8,1.34h.1Z" style="fill:none"/><path d="M67.39,65.27l0,0h0Z" style="fill:none"/><path d="M182.42,66.25s-11-33.15-44.27-48.39c0,0-18.32-6.83-26.28,9.5a17.48,17.48,0,0,0-.72,2.64c-.09.41-.17.86-.24,1.34a24.33,24.33,0,0,0-.25,3.27h0a18.83,18.83,0,0,0,3.82,11.71c.32.42.66.83,1,1.24h0a22.83,22.83,0,0,0,5.88,4.54h0l.73.4c.41.21.82.42,1.27.63a55.15,55.15,0,0,1,6.4,3A87.94,87.94,0,0,1,137.52,61c1.42,1,2.89,2.1,4.38,3.3a81,81,0,0,1,30.34,55.33c.28,3,.46,6,.46,9.25l.14-.09v.09a1,1,0,0,1,0-.11c.13-.08.34-.22.61-.42C177.59,125.45,196.09,109.47,182.42,66.25Z" style="fill:none"/><path d="M99.21,76.27h.29a14,14,0,0,0,5.59-1.14l.52-.2s.62-.18,1.61-.5c.64-.2,1.45-.46,2.34-.76l.18-.07c2.12-.72,4.7-1.67,6.89-2.67.76-.35,1.47-.71,2.09-1.06l.07,0h0c1.76-.85,1.86-1.62,1.54-2.16a1.89,1.89,0,0,0-.73-.7l-.2-.12h-.06l-.35-.17-.19-.06a52,52,0,0,0-7.19-2l-1.79-.38-.66-.13-.35-.06h0a52.27,52.27,0,0,0-9.36-.94,61.47,61.47,0,0,0-14.93,2.18c-2.81.74-4.62,1.38-4.62,1.38a4.38,4.38,0,0,0-.53.26,2.37,2.37,0,0,0-.33.21c-1.44,1.07.27,2.21.27,2.21a20.68,20.68,0,0,0,2.49,1.36,95.67,95.67,0,0,0,11.5,4.23,14.69,14.69,0,0,0,5.8,1.34h.1Z" style="fill:none"/><path d="M15.88,66.33C.58,114.7,25.6,129,25.6,129c0-1.43.06-2.81.12-4.18a90.27,90.27,0,0,1,2.61-17.11,46.74,46.74,0,0,0-.44,6.34v4.33l1.31.24c-.13,1.75-.22,3.51-.22,5.29a70.13,70.13,0,0,0,137.92,18l4.66,2.45,1.26-6.95a54.64,54.64,0,0,0,.66-9c4.11-2.92,22.61-18.9,8.94-62.12,0,0-11-33.15-44.27-48.39,0,0-18.32-6.83-26.28,9.5a17.48,17.48,0,0,0-.72,2.64c-.09.41-.17.86-.24,1.34a24.33,24.33,0,0,0-.25,3.27h0a18.83,18.83,0,0,0,3.82,11.71c.32.42.66.83,1,1.24h0a22.83,22.83,0,0,0,5.88,4.54h0l.73.4c.41.21.82.42,1.27.63a55.15,55.15,0,0,1,6.4,3A87.94,87.94,0,0,1,137.52,61c1.42,1,2.89,2.1,4.38,3.3a57.43,57.43,0,0,1,10.58,12.53l-.49.22-.53.23-1.21.52-.76.33-1,.4-1,.43v0c.16.82.36,1.74.6,2.74,2.05,8.75,6.92,23.56,17.39,32.3.54.45,1.09.88,1.65,1.3l.41.29c.43.31.88.61,1.33.89l.23.16-.18.3-1.08,1.74-.15.24-1.32,2.13-.23-.16c-14.2-9-20.42-26.69-23-37.23-.24-1-.45-1.92-.62-2.77,0,0,0,0,0-.06-4.16,1.52-8.23,2.81-12.18,3.88-.72.2-1.42.36-2.13.54l-1.65.41-.14.05c-3.86,1.49-7.64,2.78-11.33,3.94-2.3.71-4.55,1.36-6.78,2-36.62,9.86-63.41,4.54-69.58,3l-.11,0-.78-.19-.36-.1-.07,0,1.43-5s.44.12,1.15.28l.46.11.84.18C47,91.12,62.5,93.57,83.78,91c1-.12,2-.25,3.07-.4,2.54-.35,5.15-.77,7.84-1.28l1.21-.23.16,0-1.24,0c-8.64-.55-25.72-2.25-38.92-7.3-2.66-1.08-4.81-2.11-6.43-2.93l-.28-.15c-.33-.17-.64-.33-.92-.49-.6-.32-1.09-.6-1.45-.81l-.08-.05c-.51-.3-.76-.47-.76-.47L46.89,75C61.54,63.13,74.61,56.21,86.15,52.7c-1.19.93-2.45,2-3.76,3.09l-.58.51-2.13,1.88c-.81.74-1.64,1.52-2.49,2.33l-.16.15,0,.05-.54.53-.9.86c-.76.76-1.54,1.55-2.32,2.37a36.78,36.78,0,0,1,4.29-1.6,73.5,73.5,0,0,1,21.95-3.15c2.38,0,4.6.11,6.69.28a65.56,65.56,0,0,1,18.32,4l.85.35.19.09.09,0,.09,0-.17-.18c-1-1.06-2-2.1-3-3.1l-.27-.26c-.64-.63-1.3-1.25-2-1.85l-.91-.83c-.86-.77-1.7-1.51-2.52-2.2l-1-.87c-1.66-1.38-3.15-2.55-4.33-3.46s-2.11-1.58-2.48-1.84l-.22-.15h0a72.86,72.86,0,0,0-6.77-4.41,6.91,6.91,0,0,0-5.21,0,84,84,0,0,0-10.37,7.12c-13,2.78-25.68,9.33-37.78,19.61a50.35,50.35,0,0,0-4.22,4A87.29,87.29,0,0,1,67.32,56.87a57.56,57.56,0,0,1,7.59-3.64c18.25-8.44,11.52-25.79,11.52-25.79C78.47,11.11,60.16,18,60.16,18,26.88,33.18,15.88,66.33,15.88,66.33Z" style="fill:none"/><path d="M67.39,65.27l0,0h0Z" style="fill:none"/><path d="M33.15,111.74c0,.75-.07,1.51-.07,2.29a102.72,102.72,0,0,0,16.55,1.13A154.33,154.33,0,0,0,140.45,85.3s-3.48,33,24.8,49.74a67.2,67.2,0,0,0,.94-11.15c0-1,0-2-.07-3-14.2-9-20.42-26.69-23-37.23-.24-1-.45-1.92-.62-2.77,0,0,0,0,0-.06-4.16,1.52-8.23,2.81-12.18,3.88-.72.2-1.42.36-2.13.54l-1.65.41-.14.05c-3.86,1.49-7.64,2.78-11.33,3.94-2.3.71-4.55,1.36-6.78,2-36.62,9.86-63.41,4.54-69.58,3-.34.7-.66,1.41-1,2.12A66.7,66.7,0,0,0,33.15,111.74Z" style="fill:none"/><path d="M49.39,78.78a42.31,42.31,0,0,0-2.76,3.38h0a67.17,67.17,0,0,0-5.35,7.76C47,91.12,62.5,93.57,83.78,91c1-.12,2-.25,3.07-.4,2.54-.35,5.15-.77,7.84-1.28l1.21-.23.16,0-1.24,0c-8.64-.55-25.72-2.25-38.92-7.3-2.66-1.08-4.81-2.11-6.43-2.93h0A.2.2,0,0,0,49.39,78.78Z" style="fill:none"/><path d="M150.42,80.75l-.13-.15-1.71-2.07-.08,0h0l-1,.43v0c.16.82.36,1.74.6,2.74,2.05,8.75,6.92,23.56,17.39,32.3a66.75,66.75,0,0,0-15-33.3Z" style="fill:none"/><path d="M137.47,106.14a66.43,66.43,0,0,1-2-11.12l-.22.14.08-.1a169.18,169.18,0,0,1-47.92,20.6l-.08,0-1.9.45a158.62,158.62,0,0,1-35.77,4.22,109.21,109.21,0,0,1-17.42-1.2.45.45,0,0,1,0,.11c0,.21,0,.41,0,.61-.08,1.33-.13,2.67-.13,4a66.64,66.64,0,0,0,11.19,37.05l.43.65a67.56,67.56,0,0,0,24.53,21.8,66.83,66.83,0,0,0,62-.08,67.66,67.66,0,0,0,22.58-19.22c.8-1.06,1.55-2.15,2.28-3.25a67,67,0,0,0,9.08-20.46A54.66,54.66,0,0,1,137.47,106.14Z" style="fill:none"/><path d="M82.39,55.79l-.58.51-2.13,1.88c-.81.74-1.64,1.52-2.49,2.33l-.16.15,0,.05-.54.53-.9.86c-.76.76-1.54,1.55-2.32,2.37a36.78,36.78,0,0,1,4.29-1.6,73.5,73.5,0,0,1,21.95-3.15c2.38,0,4.6.11,6.69.28a65.56,65.56,0,0,1,18.32,4l.85.35.19.09.09,0,.09,0-.17-.18c-1-1.06-2-2.1-3-3.1l-.27-.26c-.64-.63-1.3-1.25-2-1.85l-.91-.83c-.86-.77-1.7-1.51-2.52-2.2l-1-.87c-1.66-1.38-3.15-2.55-4.33-3.46s-2.11-1.58-2.48-1.84l-.22-.15h0a72.86,72.86,0,0,0-6.77-4.41,6.91,6.91,0,0,0-5.21,0,84,84,0,0,0-10.37,7.12l-.33.26C85,53.63,83.7,54.67,82.39,55.79Z" style="fill:none"/><path d="M67.32,56.87a57.56,57.56,0,0,1,7.59-3.64c18.25-8.44,11.52-25.79,11.52-25.79C78.47,11.11,60.16,18,60.16,18,26.88,33.18,15.88,66.33,15.88,66.33.58,114.7,25.6,129,25.6,129c0-1.43.06-2.81.12-4.18a90.27,90.27,0,0,1,2.61-17.11A79.75,79.75,0,0,1,44.48,76.06,87.29,87.29,0,0,1,67.32,56.87Z" style="fill:none"/><path d="M99.21,76.27h.29a14,14,0,0,0,5.59-1.14l.52-.2s.62-.18,1.61-.5c.64-.2,1.45-.46,2.34-.76l.18-.07c2.12-.72,4.7-1.67,6.89-2.67.76-.35,1.47-.71,2.09-1.06l.07,0h0c1.76-.85,1.86-1.62,1.54-2.16a1.89,1.89,0,0,0-.73-.7l-.2-.12h-.06l-.35-.17-.19-.06a52,52,0,0,0-7.19-2l-1.79-.38-.66-.13-.35-.06h0a52.27,52.27,0,0,0-9.36-.94,61.47,61.47,0,0,0-14.93,2.18c-2.81.74-4.62,1.38-4.62,1.38a4.38,4.38,0,0,0-.53.26,2.37,2.37,0,0,0-.33.21c-1.44,1.07.27,2.21.27,2.21a20.68,20.68,0,0,0,2.49,1.36,95.67,95.67,0,0,0,11.5,4.23,14.69,14.69,0,0,0,5.8,1.34h.1Z" style="fill:none"/><path d="M67.39,65.27l0,0h0Z" style="fill:none"/><path d="M182.42,66.25s-11-33.15-44.27-48.39c0,0-18.32-6.83-26.28,9.5a17.48,17.48,0,0,0-.72,2.64c-.09.41-.17.86-.24,1.34a24.33,24.33,0,0,0-.25,3.27h0a18.83,18.83,0,0,0,3.82,11.71c.32.42.66.83,1,1.24h0a22.83,22.83,0,0,0,5.88,4.54h0l.73.4c.41.21.82.42,1.27.63a55.15,55.15,0,0,1,6.4,3A87.94,87.94,0,0,1,137.52,61c1.42,1,2.89,2.1,4.38,3.3a81,81,0,0,1,30.34,55.33c.28,3,.46,6,.46,9.25l.14-.09v.09a1,1,0,0,1,0-.11c.13-.08.34-.22.61-.42C177.59,125.45,196.09,109.47,182.42,66.25Z" style="fill:none"/><path d="M73.22,39a5.82,5.82,0,1,0-5.94-5.82A5.89,5.89,0,0,0,73.22,39Z" style="fill:#010101"/><path d="M127.43,27.75a6.09,6.09,0,0,0-2.35-.48,5.83,5.83,0,1,0,0,11.65,6,6,0,0,0,4.37-1.9A5.73,5.73,0,0,0,131,33.1,5.82,5.82,0,0,0,127.43,27.75Z" style="fill:#010101"/><path d="M132.56,6.21a100.69,100.69,0,0,0-75.9,3.92C22.8,26-.67,60.21-.67,99.72c0,54.66,44.9,99.13,100.09,99.13s100.1-44.47,100.1-99.13C199.52,56.56,171.51,19.78,132.56,6.21Zm-33.1,38.6a4.61,4.61,0,0,1,2.6.51,72.86,72.86,0,0,1,6.77,4.41h0l.22.15c.37.26,1.25.9,2.48,1.84s2.67,2.08,4.33,3.46l1,.87c.82.69,1.66,1.43,2.52,2.2l.91.83c.65.6,1.31,1.22,2,1.85l.27.26c1,1,2,2,3,3.1l.17.18-.09,0-.09,0-.19-.09-.85-.35a65.56,65.56,0,0,0-18.32-4c-2.09-.17-4.31-.28-6.69-.28a73.5,73.5,0,0,0-21.95,3.15,36.78,36.78,0,0,0-4.29,1.6c.78-.82,1.56-1.61,2.32-2.37l.9-.86.54-.53,0-.05.16-.15c.85-.81,1.68-1.59,2.49-2.33l2.13-1.88.58-.51c1.31-1.12,2.57-2.16,3.76-3.09l.33-.26a84,84,0,0,1,10.37-7.12A4.61,4.61,0,0,1,99.46,44.81Zm30.74,138.5a66.83,66.83,0,0,1-62,.08,67.56,67.56,0,0,1-24.53-21.8l-.43-.65a66.64,66.64,0,0,1-11.19-37c0-1.35,0-2.69.13-4,0-.2,0-.4,0-.61a.45.45,0,0,0,0-.11,109.21,109.21,0,0,0,17.42,1.2,158.62,158.62,0,0,0,35.77-4.22l1.9-.45.08,0a169.18,169.18,0,0,0,47.92-20.6l-.08.1.22-.14a66.43,66.43,0,0,0,2,11.12,54.66,54.66,0,0,0,26.67,34.24,67,67,0,0,1-9.08,20.46c-.73,1.1-1.48,2.19-2.28,3.25A67.66,67.66,0,0,1,130.2,183.31ZM148.5,78.56l.08,0,1.71,2.07.13.15h0a66.75,66.75,0,0,1,15,33.3c-10.47-8.74-15.34-23.55-17.39-32.3-.24-1-.44-1.92-.6-2.74v0l1-.43Zm-6,2.38c.17.85.38,1.78.62,2.77,2.54,10.54,8.76,28.28,23,37.23,0,1,.07,2,.07,3a67.2,67.2,0,0,1-.94,11.15C137,118.28,140.45,85.3,140.45,85.3a154.33,154.33,0,0,1-90.82,29.86A102.72,102.72,0,0,1,33.08,114c0-.78,0-1.54.07-2.29a66.7,66.7,0,0,1,4.61-14.93c.31-.71.63-1.42,1-2.12,6.17,1.51,33,6.83,69.58-3,2.23-.6,4.48-1.25,6.78-2,3.69-1.16,7.47-2.45,11.33-3.94l.14-.05,1.65-.41c.71-.18,1.41-.34,2.13-.54,3.95-1.07,8-2.36,12.18-3.88C142.53,80.9,142.53,80.92,142.54,80.94ZM67.39,65.27l0,0h0ZM46.64,82.17h0a42.31,42.31,0,0,1,2.76-3.38.2.2,0,0,1,.08,0h0c1.62.82,3.77,1.85,6.43,2.93,13.2,5,30.28,6.75,38.92,7.3l1.24,0-.16,0-1.21.23c-2.69.51-5.3.93-7.84,1.28-1,.15-2.06.28-3.07.4-21.28,2.54-36.75.09-42.49-1.1A67.17,67.17,0,0,1,46.64,82.17ZM108.82,64h0l.35.06.66.13,1.79.38a52,52,0,0,1,7.19,2l.19.06.35.17h.06l.2.12a1.89,1.89,0,0,1,.73.7c.32.54.22,1.31-1.54,2.16h0l-.07,0c-.62.35-1.33.71-2.09,1.06-2.19,1-4.77,1.95-6.89,2.67l-.18.07c-.89.3-1.7.56-2.34.76-1,.32-1.61.5-1.61.5l-.52.2a14,14,0,0,1-5.59,1.14h-.39a14.69,14.69,0,0,1-5.8-1.34,95.67,95.67,0,0,1-11.5-4.23,20.68,20.68,0,0,1-2.49-1.36s-1.71-1.14-.27-2.21a2.37,2.37,0,0,1,.33-.21,4.38,4.38,0,0,1,.53-.26s1.81-.64,4.62-1.38A61.47,61.47,0,0,1,99.46,63.1a52.27,52.27,0,0,1,9.36.94ZM25.6,129s-25-14.28-9.72-62.65c0,0,11-33.15,44.28-48.38,0,0,18.31-6.84,26.27,9.49,0,0,6.73,17.35-11.52,25.79a57.56,57.56,0,0,0-7.59,3.64A87.29,87.29,0,0,0,44.48,76.06a79.75,79.75,0,0,0-16.15,31.63,90.27,90.27,0,0,0-2.61,17.11C25.66,126.17,25.6,127.55,25.6,129Zm147.88-.61c-.27.2-.48.34-.61.42a1,1,0,0,0,0,.11v-.09l-.14.09c0-3.21-.18-6.28-.46-9.25A81,81,0,0,0,141.9,64.32c-1.49-1.2-3-2.3-4.38-3.3a87.94,87.94,0,0,0-7.72-4.87,55.15,55.15,0,0,0-6.4-3c-.45-.21-.86-.42-1.27-.63l-.73-.4h0a22.83,22.83,0,0,1-5.88-4.54h0c-.37-.41-.71-.82-1-1.24a18.83,18.83,0,0,1-3.82-11.71h0a24.33,24.33,0,0,1,.25-3.27c.07-.48.15-.93.24-1.34a17.48,17.48,0,0,1,.72-2.64c8-16.33,26.28-9.5,26.28-9.5,33.27,15.24,44.27,48.39,44.27,48.39C196.09,109.47,177.59,125.45,173.48,128.37Z" style="fill:#010101"/><path d="M89.61,52.2a6.41,6.41,0,0,0-2.26,2.57l0,.14a.88.88,0,0,0,.93,1.3A3.43,3.43,0,0,0,89.3,56a8.23,8.23,0,0,0,2.24-1.15,8.71,8.71,0,0,0,1-.81l0,0c1.09-1.06,1.63-2.18,1.26-2.77l0-.05a.88.88,0,0,0-.53-.31,3.9,3.9,0,0,0-2.34.5l-.56.31A7.85,7.85,0,0,0,89.61,52.2Z" style="fill:#fff3b6"/><path d="M109.6,51.45a13,13,0,0,1,.63,2.7c0,.17,0,.34,0,.51,0,.52.07,1,.07,1.5,0,.22,0,.43,0,.64s0,.66-.07,1v.05a15.77,15.77,0,0,1-.46,2.56A51.78,51.78,0,0,1,124.57,64l.75.32.19.09.09,0,.09,0-.17-.18c-1-1.06-2-2.1-3-3.1l-.27-.26c-.64-.63-1.3-1.25-2-1.85l-.91-.83c-.86-.77-1.7-1.51-2.52-2.2l-1-.87c-1.66-1.38-3.15-2.55-4.33-3.46s-2.11-1.58-2.48-1.84l-.22-.15h0a.91.91,0,0,0,.07.14A11.54,11.54,0,0,1,109.6,51.45Z" style="fill:#f3961f"/><path d="M108.82,64h0l.35.06Z" style="fill:#ec8a23"/><path d="M103.42,72.82a.93.93,0,0,1-.14.14c-.42.41-.82.78-1.21,1.11a23.15,23.15,0,0,1-3,2.2h.39a19,19,0,0,0,5.59-1.14l.52-.2,1.58-.5c.82-.26,1.57-.52,2.3-.77l.18-.06c3.06-1.06,5.33-2,6.85-2.68,1.26-.56,2-.94,2.2-1l.07,0h0c1.76-.85,1.86-1.62,1.54-2.16a2.28,2.28,0,0,0-.73-.7l-.2-.12h-.06c-.17-.08-.35-.16-.54-.23a52,52,0,0,0-7.19-2l-1.79-.38-.66-.13-.35-.06A17.42,17.42,0,0,1,105.89,70,22.91,22.91,0,0,1,103.42,72.82Z" style="fill:#ec8a23"/><path d="M67.32,56.87A65.48,65.48,0,0,1,77,52.12C11,74.93,25.55,128.9,25.55,128.9c0-1.4.09-2.76.17-4.1a90.27,90.27,0,0,1,2.61-17.11A79.75,79.75,0,0,1,44.48,76.06,87.29,87.29,0,0,1,67.32,56.87Z" style="fill:#c1c1c6"/></svg>