<svg id="aac519e6-9e2b-44d3-8908-55e6ab67dd0f" data-name="Layer 3" xmlns="http://www.w3.org/2000/svg" viewBox="0 0 300 200"><title>logomark-padded</title><path d="M162.09,60.83Z" style="fill:none"/><path d="M158.63,48.63c.05-.36.11-.7.18-1C158.74,47.93,158.68,48.27,158.63,48.63Z" style="fill:none"/><path d="M158.44,51.09a18,18,0,0,1,.19-2.46A18,18,0,0,0,158.44,51.09Z" style="fill:none"/><path d="M161.31,59.89a14.12,14.12,0,0,1-2.87-8.79A14.12,14.12,0,0,0,161.31,59.89Z" style="fill:none"/><path d="M157.06,73.19h0l.26,0Z" style="fill:none"/><polygon points="166.51 64.24 166.51 64.25 166.51 64.24 166.51 64.24" style="fill:none"/><path d="M125.9,74.14h0l0,0Z" style="fill:none"/><path d="M128.2,156.51a12.87,12.87,0,0,1-.92,4.78c11.26,5.55,26.78,8.5,44.93-.55a12.91,12.91,0,0,1,19.58-14.83,50.29,50.29,0,0,0,6.82-15.37,41.08,41.08,0,0,1-20-25.72,50.28,50.28,0,0,1-1.53-8.35l-.16.1c-1.18,1.48-20.36,24.3-77.4,21.89a25.87,25.87,0,0,1,0-3.32c-.06,1-.1,2-.1,3A50.17,50.17,0,0,0,107.78,146a12.91,12.91,0,0,1,20.42,10.52Zm49.85-33.18a6.11,6.11,0,1,1-6.11,6.1A6.1,6.1,0,0,1,178.05,123.33Zm-43.67,17.92a2.8,2.8,0,0,1,4,.27c.07.08,5.33,6,11.92,6h0c3.79,0,7.45-2,10.88-6a2.8,2.8,0,0,1,4.23,3.66c-4.55,5.25-9.64,7.91-15.14,7.91-9.19,0-15.87-7.58-16.15-7.91A2.8,2.8,0,0,1,134.38,141.25ZM120.5,123.33a6.11,6.11,0,1,1-6.1,6.1A6.11,6.11,0,0,1,120.5,123.33Z" style="fill:#fdcca0"/><path d="M139.47,112.33a119.46,119.46,0,0,1-26.87,3.16,81.61,81.61,0,0,1-13.09-.9v.09C99.75,114.72,116.32,117.9,139.47,112.33Z" style="fill:#fdcca0"/><path d="M120.5,135.54a6.11,6.11,0,1,0-6.1-6.11A6.12,6.12,0,0,0,120.5,135.54Z" style="fill:#000101"/><path d="M150.25,153.1c5.5,0,10.59-2.66,15.14-7.91a2.8,2.8,0,0,0-4.23-3.66c-3.43,3.95-7.09,6-10.88,6h0c-6.59,0-11.85-5.91-11.92-6a2.8,2.8,0,0,0-4.23,3.67C134.38,145.52,141.06,153.1,150.25,153.1Z" style="fill:#000101"/><path d="M178.05,135.54a6.11,6.11,0,1,0-6.11-6.11A6.11,6.11,0,0,0,178.05,135.54Z" style="fill:#000101"/><path d="M117.31,86.5c-2-.82-3.62-1.58-4.83-2.21h0A41.26,41.26,0,0,0,117.31,86.5Z" style="fill:#f2862f"/><path d="M106.34,92.64c4.31.9,15.92,2.74,31.91.83-18.92-1.52-27.74-6.57-27.9-6.66A50.62,50.62,0,0,0,106.34,92.64Z" style="fill:#f2862f"/><path d="M186.54,86.5c1.54,6.57,5.2,17.7,13.07,24.26a50.15,50.15,0,0,0-11.31-25Z" style="fill:#f2862f"/><path d="M182.38,85.84q-4.69,1.72-9.16,2.92c3.71-1,6.83-2,9.17-2.87Z" style="fill:#f2862f"/><path d="M186.86,84.1l-.78.32v0l.78-.34Z" style="fill:#f2862f"/><path d="M103.68,97.81A50,50,0,0,0,100.22,109c0,.57,0,1.14,0,1.72a77,77,0,0,0,12.43.85,115.9,115.9,0,0,0,68.22-22.43s-2.62,24.78,18.63,37.37a51.41,51.41,0,0,0,.7-8.38c0-.74,0-1.47-.05-2.21-10.67-6.72-15.34-20-17.25-28a98.28,98.28,0,0,1-25.24,5.89C126.94,103.5,104.84,98.11,103.68,97.81Z" style="fill:#f2862f"/><path d="M99.49,118.46c57,2.41,76.22-20.41,77.4-21.89l.06-.07A127.12,127.12,0,0,1,141,112h-.07c-.48.13-.95.23-1.42.35-23.15,5.57-39.72,2.39-40,2.35,0,.15,0,.3,0,.46A25.87,25.87,0,0,0,99.49,118.46Z" style="fill:#d8a27d"/><path d="M139.47,112.33c.47-.12.94-.22,1.42-.35" style="fill:none;stroke:#d8a27d;stroke-linecap:round;stroke-linejoin:round;stroke-width:0px"/><path d="M157.61,93.86A98.28,98.28,0,0,0,182.85,88c-.18-.74-.33-1.44-.46-2.08-2.34.85-5.46,1.89-9.17,2.87-.54.15-1.06.27-1.59.41l-1.24.3-.11,0c-2.9,1.12-5.74,2.09-8.51,3-1.73.53-3.42,1-5.09,1.47-27.51,7.41-47.63,3.41-52.27,2.28-.26.52-.49,1.06-.73,1.59C104.84,98.11,126.94,103.5,157.61,93.86Z" style="fill:#b25226"/><path d="M171.49,156.51a12.82,12.82,0,0,0,.72,4.23,81.83,81.83,0,0,0,17.87-12.39c.6-.8,1.17-1.61,1.71-2.44a12.8,12.8,0,0,0-7.36-2.33A12.93,12.93,0,0,0,171.49,156.51Z" style="fill:#f48c9c"/><path d="M127.28,161.29a12.91,12.91,0,0,0-19.5-15.3l.33.48A62.57,62.57,0,0,0,127.28,161.29Z" style="fill:#f48c9c"/><path d="M173.12,162.79a50.83,50.83,0,0,0,17-14.44,81.83,81.83,0,0,1-17.87,12.39c-18.15,9-33.67,6.1-44.93.55a62.57,62.57,0,0,1-19.17-14.82,50.78,50.78,0,0,0,18.42,16.38,50.22,50.22,0,0,0,46.59-.06Z" style="fill:#d8a27d"/><path d="M107.73,146h0" style="fill:none;stroke:#000101;stroke-linecap:round;stroke-linejoin:round;stroke-width:0px"/><path d="M133.15,64.24a49.57,49.57,0,0,0-7.27,3.57,45.89,45.89,0,0,1,5.71-2.74c13.71-6.33,8.65-19.37,8.65-19.37-6-12.26-19.74-7.13-19.74-7.13C95.51,50,87.25,74.92,87.25,74.92c-11.5,36.33,7.3,47.05,7.3,47.05,0-1.07,0-2.1.08-3.14-.06,1-.1,2-.12,3.08C94.51,121.91,83.59,81.37,133.15,64.24Zm-2.83-18.6A4.38,4.38,0,1,1,125.86,50,4.42,4.42,0,0,1,130.32,45.64Z" style="fill:#f9f9fa"/><path d="M165.71,75.92a1.42,1.42,0,0,0-.54-.52A1.64,1.64,0,0,1,165.71,75.92Z" style="fill:#f5ac1f"/><path d="M154.25,81.53a14.6,14.6,0,0,1-4.19.85A10.25,10.25,0,0,0,154.25,81.53Z" style="fill:#f5ac1f"/><path d="M164.71,75.17l-.15,0a3.89,3.89,0,0,1,.41.17Z" style="fill:#f5ac1f"/><path d="M157.82,73.34l1.34.28Z" style="fill:#f5ac1f"/><path d="M134.9,77.18a17.33,17.33,0,0,0,1.87,1,71.85,71.85,0,0,0,8.63,3.18,11.3,11.3,0,0,0,4.36,1A18.45,18.45,0,0,0,152,80.73c.3-.25.6-.53.92-.83l.1-.11a18.32,18.32,0,0,0,1.86-2.14,13.2,13.2,0,0,0,2.2-4.46,39.81,39.81,0,0,0-7-.7,45.78,45.78,0,0,0-11.21,1.64c-2.1.55-3.47,1-3.47,1a3,3,0,0,0-.4.19,1.43,1.43,0,0,0-.24.16C133.61,76.32,134.9,77.18,134.9,77.18Z" style="fill:#f5ac1f"/><path d="M157.7,80.37l-.14,0-1.73.58-1.19.38,1.22-.38,1.75-.57.14-.05c1.59-.54,3.53-1.26,5.17-2,.57-.26,1.11-.53,1.58-.8-.16.09-.71.37-1.66.8C161.7,78.87,160,79.58,157.7,80.37Z" style="fill:#f5ac1f"/><path d="M137.21,67l-.44.38c-.52.45-1.05.92-1.6,1.42s-1.23,1.14-1.87,1.74l-.12.12,0,0-.41.39-.67.65c-.57.57-1.16,1.16-1.74,1.78a27.3,27.3,0,0,1,3.22-1.2A55,55,0,0,1,150,70c1.79,0,3.46.08,5,.21a48.78,48.78,0,0,1,13.75,3l.65.26-.57-.24a38.49,38.49,0,0,0-11.1-2.71,11.6,11.6,0,0,0,.35-1.92v0c0-.23,0-.47,0-.73s0-.31,0-.47c0-.36,0-.74-.05-1.13,0-.13,0-.25,0-.38a10.28,10.28,0,0,0-.48-2,8.26,8.26,0,0,0-.52-1.19l-.06-.1A54.91,54.91,0,0,0,152,59.13a3.49,3.49,0,0,0-2-.38,3.44,3.44,0,0,0-2,.38,63.82,63.82,0,0,0-7.79,5.35l-.25.19C139.14,65.38,138.19,66.15,137.21,67Zm11,.81h0Zm-1.83.08-.47,0Zm-1-4.56a.68.68,0,0,1,.4.24l0,0c.27.45-.13,1.29-1,2.08l0,0a7.38,7.38,0,0,1-.72.6,5.83,5.83,0,0,1-1.68.86,2.27,2.27,0,0,1-.81.13.78.78,0,0,1-.66-.26.82.82,0,0,1,0-.71.45.45,0,0,1,0-.11,4.88,4.88,0,0,1,1.7-1.93,6.65,6.65,0,0,1,.56-.36l.42-.23A3,3,0,0,1,145.37,63.33Z" style="fill:#f8c122"/><path d="M146.35,67.89l-.47,0" style="fill:none;stroke:#f8c122;stroke-linecap:round;stroke-linejoin:round;stroke-width:0px"/><path d="M147.83,67.82h.35" style="fill:none;stroke:#f8c122;stroke-linecap:round;stroke-linejoin:round;stroke-width:0px"/><path d="M112.42,84.27a32.18,32.18,0,0,0-2.08,2.54h0c.16.09,9,5.14,27.9,6.66l2.3-.3q2.87-.39,5.89-1l.91-.18.12,0-.92,0c-6.49-.41-19.32-1.69-29.24-5.48a41.26,41.26,0,0,1-4.83-2.2Z" style="fill:#b25226"/><path d="M159.35,45.64a13.49,13.49,0,0,0-.54,2c-.07.31-.13.65-.18,1a18,18,0,0,0-.19,2.46h0a14.12,14.12,0,0,0,2.87,8.79c.24.32.5.63.78.94h0a17.19,17.19,0,0,0,4.42,3.41h0C209,79,207,110.89,205.6,119.65c-.19,1.2-.37,2-.43,2.18a5.3,5.3,0,0,0,.46-.31c3.09-2.19,17-14.2,6.72-46.66,0,0-8.27-24.91-33.26-36.35C179.09,38.51,165.33,33.38,159.35,45.64Zm9.92-.06a4.69,4.69,0,0,1,1.77.35,4.32,4.32,0,0,1,1.52,7,4.5,4.5,0,0,1-3.29,1.43,4.38,4.38,0,1,1,0-8.75Z" style="fill:#f9f9fa"/><path d="M166.51,64.24l.55.3c.31.16.62.32.95.47a43.33,43.33,0,0,1,4.81,2.26c-1.89-1.06-3.46-1.81-4.57-2.3S166.51,64.25,166.51,64.24Z" style="fill:#f9f9fa"/><path d="M205,121.91l.11-.06c-.05-2.38-.21-4.67-.45-6.88C204.91,117.2,205,119.5,205,121.91Z" style="fill:#f9f9fa"/><path d="M188.3,85.75l-.09-.12-1.28-1.55-.06,0-.78.34c.12.62.27,1.31.45,2.06l1.76-.75Z" style="fill:#b25226"/><line x1="166.51" y1="64.24" x2="166.51" y2="64.24" style="fill:none;stroke:#c1c1c6;stroke-linecap:round;stroke-linejoin:round;stroke-width:0px"/><path d="M204.7,115c.24,2.21.4,4.5.45,6.88v.06l0-.08c.06-.22.24-1,.43-2.18C207,110.89,209,79,166.51,64.24c0,0,.64.24,1.74.73s2.68,1.24,4.57,2.3a67.11,67.11,0,0,1,5.8,3.65c1.07.76,2.17,1.58,3.29,2.48A60.84,60.84,0,0,1,204.7,115Z" style="fill:#c1c1c6"/><path d="M100.22,109c0,.57,0,1.14,0,1.72a77,77,0,0,0,12.43.85,115.9,115.9,0,0,0,68.22-22.43s-2.62,24.78,18.63,37.37a51.41,51.41,0,0,0,.7-8.38c0-.74,0-1.47-.05-2.21-10.67-6.72-15.34-20-17.25-28-.18-.74-.33-1.44-.46-2.08v0q-4.69,1.72-9.16,2.92c-.54.15-1.06.27-1.59.41l-1.24.3-.11,0c-2.9,1.12-5.74,2.09-8.51,3-1.73.53-3.42,1-5.09,1.47-27.51,7.41-47.63,3.41-52.27,2.28-.26.52-.49,1.06-.73,1.59A50,50,0,0,0,100.22,109Z" style="fill:none"/><path d="M178.58,104.82a50.28,50.28,0,0,1-1.53-8.35l-.16.1.06-.07A127.12,127.12,0,0,1,141,112h-.07c-.48.13-.95.23-1.42.35a119.46,119.46,0,0,1-26.87,3.16,81.61,81.61,0,0,1-13.09-.9v.09c0,.15,0,.3,0,.46-.06,1-.1,2-.1,3A50.17,50.17,0,0,0,107.78,146l.33.48a50.78,50.78,0,0,0,18.42,16.38,50.22,50.22,0,0,0,46.59-.06,50.83,50.83,0,0,0,17-14.44c.6-.8,1.17-1.61,1.71-2.44a50.29,50.29,0,0,0,6.82-15.37A41.08,41.08,0,0,1,178.58,104.82Z" style="fill:none"/><path d="M112.42,84.27a32.18,32.18,0,0,0-2.08,2.54h0a50.62,50.62,0,0,0-4,5.83c4.31.9,15.92,2.74,31.91.83l2.3-.3q2.87-.39,5.89-1l.91-.18.12,0-.92,0c-6.49-.41-19.32-1.69-29.24-5.48-2-.82-3.62-1.58-4.83-2.21h0Z" style="fill:none"/><path d="M188.3,85.75l-.09-.12-1.28-1.55-.06,0h0l-.78.32v0c.12.62.27,1.31.45,2.06,1.54,6.57,5.2,17.7,13.07,24.26a50.15,50.15,0,0,0-11.31-25Z" style="fill:none"/><path d="M125.88,67.81a45.89,45.89,0,0,1,5.71-2.74c13.71-6.33,8.65-19.37,8.65-19.37-6-12.26-19.74-7.13-19.74-7.13C95.51,50,87.25,74.92,87.25,74.92c-11.5,36.33,7.3,47.05,7.3,47.05,0-1.07,0-2.1.08-3.14a68.4,68.4,0,0,1,2-12.85,59.82,59.82,0,0,1,12.13-23.76A65.58,65.58,0,0,1,125.88,67.81Z" style="fill:none"/><path d="M137.21,67l-.44.38c-.52.45-1.05.92-1.6,1.42s-1.23,1.14-1.87,1.74l-.12.12,0,0-.41.39-.67.65c-.57.57-1.16,1.16-1.74,1.78a27.3,27.3,0,0,1,3.22-1.2A55,55,0,0,1,150,70c1.79,0,3.46.08,5,.21a48.78,48.78,0,0,1,13.75,3l.65.26.14.07.06,0,.07,0-.12-.14c-.73-.79-1.49-1.57-2.26-2.33l-.2-.19-1.46-1.39-.7-.63c-.64-.57-1.27-1.13-1.88-1.65l-.77-.65c-1.25-1-2.37-1.91-3.26-2.6s-1.58-1.18-1.86-1.38l-.16-.12h0A54.91,54.91,0,0,0,152,59.13a3.49,3.49,0,0,0-2-.38,3.44,3.44,0,0,0-2,.38,63.82,63.82,0,0,0-7.79,5.35l-.25.19C139.14,65.38,138.19,66.15,137.21,67Z" style="fill:none"/><path d="M149.84,82.38h.22a10.25,10.25,0,0,0,4.19-.85l.39-.15,1.22-.38,1.75-.57.14-.05c1.59-.54,3.53-1.26,5.17-2,.57-.26,1.11-.53,1.58-.8l.05,0h0c1.32-.64,1.39-1.21,1.15-1.62a1.42,1.42,0,0,0-.54-.52l-.16-.09h0l-.26-.12-.15,0a40.11,40.11,0,0,0-5.4-1.5l-1.34-.28-.5-.1-.26,0h0a39.81,39.81,0,0,0-7-.7,45.78,45.78,0,0,0-11.21,1.64c-2.1.55-3.47,1-3.47,1a3,3,0,0,0-.4.19,1.43,1.43,0,0,0-.24.16c-1.09.8.2,1.66.2,1.66a17.33,17.33,0,0,0,1.87,1,71.85,71.85,0,0,0,8.63,3.18,11.3,11.3,0,0,0,4.36,1h.08Z" style="fill:none"/><path d="M125.94,74.12l0,0h0Z" style="fill:none"/><path d="M212.35,74.86S204.08,50,179.09,38.51c0,0-13.76-5.13-19.74,7.13a13.49,13.49,0,0,0-.54,2c-.07.31-.13.65-.18,1a18,18,0,0,0-.19,2.46h0a14.12,14.12,0,0,0,2.87,8.79c.24.32.5.63.78.94h0a17.19,17.19,0,0,0,4.42,3.41h0l.55.3c.31.16.62.32.95.47a43.33,43.33,0,0,1,4.81,2.26,67.11,67.11,0,0,1,5.8,3.65c1.07.76,2.17,1.58,3.29,2.48A60.84,60.84,0,0,1,204.7,115c.21,2.23.34,4.53.34,6.94l.11-.06v.06l0-.08a5.3,5.3,0,0,0,.46-.31C208.72,119.33,222.61,107.32,212.35,74.86Z" style="fill:none"/><path d="M149.84,82.38h.22a10.25,10.25,0,0,0,4.19-.85l.39-.15,1.22-.38,1.75-.57.14-.05c1.59-.54,3.53-1.26,5.17-2,.57-.26,1.11-.53,1.58-.8l.05,0h0c1.32-.64,1.39-1.21,1.15-1.62a1.42,1.42,0,0,0-.54-.52l-.16-.09h0l-.26-.12-.15,0a40.11,40.11,0,0,0-5.4-1.5l-1.34-.28-.5-.1-.26,0h0a39.81,39.81,0,0,0-7-.7,45.78,45.78,0,0,0-11.21,1.64c-2.1.55-3.47,1-3.47,1a3,3,0,0,0-.4.19,1.43,1.43,0,0,0-.24.16c-1.09.8.2,1.66.2,1.66a17.33,17.33,0,0,0,1.87,1,71.85,71.85,0,0,0,8.63,3.18,11.3,11.3,0,0,0,4.36,1h.08Z" style="fill:none"/><path d="M87.25,74.92c-11.5,36.33,7.3,47.05,7.3,47.05,0-1.07,0-2.1.08-3.14a68.4,68.4,0,0,1,2-12.85,35.21,35.21,0,0,0-.33,4.76V114l1,.18c-.1,1.31-.17,2.64-.17,4a52.68,52.68,0,0,0,103.6,13.5l3.51,1.84.94-5.22a39.82,39.82,0,0,0,.5-6.75c3.09-2.19,17-14.2,6.72-46.66,0,0-8.27-24.91-33.26-36.35,0,0-13.76-5.13-19.74,7.13a13.49,13.49,0,0,0-.54,2c-.07.31-.13.65-.18,1a18,18,0,0,0-.19,2.46h0a14.12,14.12,0,0,0,2.87,8.79c.24.32.5.63.78.94h0a17.19,17.19,0,0,0,4.42,3.41h0l.55.3c.31.16.62.32.95.47a43.33,43.33,0,0,1,4.81,2.26,67.11,67.11,0,0,1,5.8,3.65c1.07.76,2.17,1.58,3.29,2.48a43.54,43.54,0,0,1,8,9.42l-.37.16-.4.17-.91.4-.57.24-.75.31-.78.32v0c.12.62.27,1.31.45,2.06,1.54,6.57,5.2,17.7,13.07,24.26.4.34.81.66,1.24,1l.3.23,1,.67.18.11-.14.23-.81,1.31-.12.18-1,1.6-.17-.12c-10.67-6.72-15.34-20-17.25-28-.18-.74-.33-1.44-.46-2.08v0q-4.69,1.72-9.16,2.92c-.54.15-1.06.27-1.59.41l-1.24.3-.11,0c-2.9,1.12-5.74,2.09-8.51,3-1.73.53-3.42,1-5.09,1.47-27.51,7.41-47.63,3.41-52.27,2.28l-.08,0-.59-.15-.27-.07,0,0,1.07-3.75.86.22.35.08.64.13c4.31.9,15.92,2.74,31.91.83l2.3-.3q2.87-.39,5.89-1l.91-.18.12,0-.92,0c-6.49-.41-19.32-1.69-29.24-5.48-2-.82-3.62-1.58-4.83-2.21l-.21-.1-.69-.37-1.1-.61-.06,0-.57-.35.69-1.38c11-8.93,20.82-14.13,29.49-16.77-.89.71-1.84,1.48-2.82,2.33l-.44.38c-.52.45-1.05.92-1.6,1.42s-1.23,1.14-1.87,1.74l-.12.12,0,0-.41.39-.67.65c-.57.57-1.16,1.16-1.74,1.78a27.3,27.3,0,0,1,3.22-1.2A55,55,0,0,1,150,70c1.79,0,3.46.08,5,.21a48.78,48.78,0,0,1,13.75,3l.65.26.14.07.06,0,.07,0-.12-.14c-.73-.79-1.49-1.57-2.26-2.33l-.2-.19-1.46-1.39-.7-.63c-.64-.57-1.27-1.13-1.88-1.65l-.77-.65c-1.25-1-2.37-1.91-3.26-2.6s-1.58-1.18-1.86-1.38l-.16-.12h0A54.91,54.91,0,0,0,152,59.13a3.49,3.49,0,0,0-2-.38,3.44,3.44,0,0,0-2,.38,63.82,63.82,0,0,0-7.79,5.35c-9.79,2.09-19.3,7-28.38,14.73a38.64,38.64,0,0,0-3.17,3,65.58,65.58,0,0,1,17.15-14.41,45.89,45.89,0,0,1,5.71-2.74c13.71-6.33,8.65-19.37,8.65-19.37-6-12.26-19.74-7.13-19.74-7.13C95.51,50,87.25,74.92,87.25,74.92Z" style="fill:none"/><path d="M125.94,74.12l0,0h0Z" style="fill:none"/><path d="M100.22,109c0,.57,0,1.14,0,1.72a77,77,0,0,0,12.43.85,115.9,115.9,0,0,0,68.22-22.43s-2.62,24.78,18.63,37.37a51.41,51.41,0,0,0,.7-8.38c0-.74,0-1.47-.05-2.21-10.67-6.72-15.34-20-17.25-28-.18-.74-.33-1.44-.46-2.08v0q-4.69,1.72-9.16,2.92c-.54.15-1.06.27-1.59.41l-1.24.3-.11,0c-2.9,1.12-5.74,2.09-8.51,3-1.73.53-3.42,1-5.09,1.47-27.51,7.41-47.63,3.41-52.27,2.28-.26.52-.49,1.06-.73,1.59A50,50,0,0,0,100.22,109Z" style="fill:none"/><path d="M112.42,84.27a32.18,32.18,0,0,0-2.08,2.54h0a50.62,50.62,0,0,0-4,5.83c4.31.9,15.92,2.74,31.91.83l2.3-.3q2.87-.39,5.89-1l.91-.18.12,0-.92,0c-6.49-.41-19.32-1.69-29.24-5.48-2-.82-3.62-1.58-4.83-2.21h0Z" style="fill:none"/><path d="M188.3,85.75l-.09-.12-1.28-1.55-.06,0h0l-.78.32v0c.12.62.27,1.31.45,2.06,1.54,6.57,5.2,17.7,13.07,24.26a50.15,50.15,0,0,0-11.31-25Z" style="fill:none"/><path d="M178.58,104.82a50.28,50.28,0,0,1-1.53-8.35l-.16.1.06-.07A127.12,127.12,0,0,1,141,112h-.07c-.48.13-.95.23-1.42.35a119.46,119.46,0,0,1-26.87,3.16,81.61,81.61,0,0,1-13.09-.9v.09c0,.15,0,.3,0,.46-.06,1-.1,2-.1,3A50.17,50.17,0,0,0,107.78,146l.33.48a50.78,50.78,0,0,0,18.42,16.38,50.22,50.22,0,0,0,46.59-.06,50.83,50.83,0,0,0,17-14.44c.6-.8,1.17-1.61,1.71-2.44a50.29,50.29,0,0,0,6.82-15.37A41.08,41.08,0,0,1,178.58,104.82Z" style="fill:none"/><path d="M137.21,67l-.44.38c-.52.45-1.05.92-1.6,1.42s-1.23,1.14-1.87,1.74l-.12.12,0,0-.41.39-.67.65c-.57.57-1.16,1.16-1.74,1.78a27.3,27.3,0,0,1,3.22-1.2A55,55,0,0,1,150,70c1.79,0,3.46.08,5,.21a48.78,48.78,0,0,1,13.75,3l.65.26.14.07.06,0,.07,0-.12-.14c-.73-.79-1.49-1.57-2.26-2.33l-.2-.19-1.46-1.39-.7-.63c-.64-.57-1.27-1.13-1.88-1.65l-.77-.65c-1.25-1-2.37-1.91-3.26-2.6s-1.58-1.18-1.86-1.38l-.16-.12h0A54.91,54.91,0,0,0,152,59.13a3.49,3.49,0,0,0-2-.38,3.44,3.44,0,0,0-2,.38,63.82,63.82,0,0,0-7.79,5.35l-.25.19C139.14,65.38,138.19,66.15,137.21,67Z" style="fill:none"/><path d="M125.88,67.81a45.89,45.89,0,0,1,5.71-2.74c13.71-6.33,8.65-19.37,8.65-19.37-6-12.26-19.74-7.13-19.74-7.13C95.51,50,87.25,74.92,87.25,74.92c-11.5,36.33,7.3,47.05,7.3,47.05,0-1.07,0-2.1.08-3.14a68.4,68.4,0,0,1,2-12.85,59.82,59.82,0,0,1,12.13-23.76A65.58,65.58,0,0,1,125.88,67.81Z" style="fill:none"/><path d="M149.84,82.38h.22a10.25,10.25,0,0,0,4.19-.85l.39-.15,1.22-.38,1.75-.57.14-.05c1.59-.54,3.53-1.26,5.17-2,.57-.26,1.11-.53,1.58-.8l.05,0h0c1.32-.64,1.39-1.21,1.15-1.62a1.42,1.42,0,0,0-.54-.52l-.16-.09h0l-.26-.12-.15,0a40.11,40.11,0,0,0-5.4-1.5l-1.34-.28-.5-.1-.26,0h0a39.81,39.81,0,0,0-7-.7,45.78,45.78,0,0,0-11.21,1.64c-2.1.55-3.47,1-3.47,1a3,3,0,0,0-.4.19,1.43,1.43,0,0,0-.24.16c-1.09.8.2,1.66.2,1.66a17.33,17.33,0,0,0,1.87,1,71.85,71.85,0,0,0,8.63,3.18,11.3,11.3,0,0,0,4.36,1h.08Z" style="fill:none"/><path d="M125.94,74.12l0,0h0Z" style="fill:none"/><path d="M212.35,74.86S204.08,50,179.09,38.51c0,0-13.76-5.13-19.74,7.13a13.49,13.49,0,0,0-.54,2c-.07.31-.13.65-.18,1a18,18,0,0,0-.19,2.46h0a14.12,14.12,0,0,0,2.87,8.79c.24.32.5.63.78.94h0a17.19,17.19,0,0,0,4.42,3.41h0l.55.3c.31.16.62.32.95.47a43.33,43.33,0,0,1,4.81,2.26,67.11,67.11,0,0,1,5.8,3.65c1.07.76,2.17,1.58,3.29,2.48A60.84,60.84,0,0,1,204.7,115c.21,2.23.34,4.53.34,6.94l.11-.06v.06l0-.08a5.3,5.3,0,0,0,.46-.31C208.72,119.33,222.61,107.32,212.35,74.86Z" style="fill:none"/><path d="M130.32,54.39A4.38,4.38,0,1,0,125.86,50,4.42,4.42,0,0,0,130.32,54.39Z" style="fill:#010101"/><path d="M171,45.93a4.69,4.69,0,0,0-1.77-.35,4.38,4.38,0,1,0,0,8.75,4.5,4.5,0,0,0,3.29-1.43,4.32,4.32,0,0,0-1.52-7Z" style="fill:#010101"/><path d="M174.89,29.75a75.68,75.68,0,0,0-57,3A74.49,74.49,0,0,0,74.81,100c0,41.06,33.73,74.46,75.19,74.46s75.19-33.4,75.19-74.46C225.19,67.58,204.15,40,174.89,29.75ZM150,58.75a3.49,3.49,0,0,1,2,.38,54.91,54.91,0,0,1,5.08,3.32h0l.16.12c.28.2.94.68,1.86,1.38s2,1.56,3.26,2.6l.77.65c.61.52,1.24,1.08,1.88,1.65l.7.63,1.46,1.39.2.19c.77.76,1.53,1.54,2.26,2.33l.12.14-.07,0-.06,0-.14-.07-.65-.26a48.78,48.78,0,0,0-13.75-3c-1.58-.13-3.25-.21-5-.21a55,55,0,0,0-16.48,2.37,27.3,27.3,0,0,0-3.22,1.2c.58-.62,1.17-1.21,1.74-1.78l.67-.65.41-.39,0,0,.12-.12c.64-.6,1.26-1.19,1.87-1.74s1.08-1,1.6-1.42l.44-.38c1-.85,1.93-1.62,2.82-2.33l.25-.19a63.82,63.82,0,0,1,7.79-5.35A3.44,3.44,0,0,1,150,58.75Zm23.1,104a50.22,50.22,0,0,1-46.59.06,50.78,50.78,0,0,1-18.42-16.38l-.33-.48a50.17,50.17,0,0,1-8.41-27.84c0-1,0-2,.1-3,0-.16,0-.31,0-.46v-.09a81.61,81.61,0,0,0,13.09.9,119.46,119.46,0,0,0,26.87-3.16c.47-.12.94-.22,1.42-.35H141A127.12,127.12,0,0,0,177,96.5l-.06.07.16-.1a50.28,50.28,0,0,0,1.53,8.35,41.08,41.08,0,0,0,20,25.72,50.29,50.29,0,0,1-6.82,15.37c-.54.83-1.11,1.64-1.71,2.44A50.83,50.83,0,0,1,173.12,162.79ZM186.87,84.1l.06,0,1.28,1.55.09.12h0a50.15,50.15,0,0,1,11.31,25c-7.87-6.56-11.53-17.69-13.07-24.26-.18-.75-.33-1.44-.45-2.06v0l.78-.32Zm-4.48,1.79c.13.64.28,1.34.46,2.08,1.91,7.92,6.58,21.25,17.25,28,0,.74.05,1.47.05,2.21a51.41,51.41,0,0,1-.7,8.38c-21.25-12.59-18.63-37.37-18.63-37.37a115.9,115.9,0,0,1-68.22,22.43,77,77,0,0,1-12.43-.85c0-.58,0-1.15,0-1.72a50,50,0,0,1,3.46-11.21c.24-.53.47-1.07.73-1.59,4.64,1.13,24.76,5.13,52.27-2.28,1.67-.45,3.36-.94,5.09-1.47,2.77-.87,5.61-1.84,8.51-3l.11,0,1.24-.3c.53-.14,1.05-.26,1.59-.41q4.46-1.2,9.16-2.92ZM125.94,74.12l0,0h0ZM110.35,86.81h0a32.18,32.18,0,0,1,2.08-2.54l.06,0h0c1.21.63,2.83,1.39,4.83,2.21,9.92,3.79,22.75,5.07,29.24,5.48l.92,0-.12,0-.91.18q-3,.57-5.89,1l-2.3.3c-16,1.91-27.6.07-31.91-.83A50.62,50.62,0,0,1,110.35,86.81Zm46.71-13.62h0l.26,0,.5.1,1.34.28a40.11,40.11,0,0,1,5.4,1.5l.15,0,.26.12h0l.16.09a1.42,1.42,0,0,1,.54.52c.24.41.17,1-1.15,1.62h0l-.05,0c-.47.27-1,.54-1.58.8-1.64.75-3.58,1.47-5.17,2l-.14.05-1.75.57-1.22.38-.39.15a10.25,10.25,0,0,1-4.19.85h-.3a11.3,11.3,0,0,1-4.36-1,71.85,71.85,0,0,1-8.63-3.18,17.33,17.33,0,0,1-1.87-1s-1.29-.86-.2-1.66a1.43,1.43,0,0,1,.24-.16,3,3,0,0,1,.4-.19s1.37-.49,3.47-1A45.78,45.78,0,0,1,150,72.49a39.81,39.81,0,0,1,7,.7ZM94.55,122s-18.8-10.72-7.3-47c0,0,8.26-24.9,33.25-36.35,0,0,13.76-5.13,19.74,7.13,0,0,5.06,13-8.65,19.37a45.89,45.89,0,0,0-5.71,2.74,65.58,65.58,0,0,0-17.15,14.41A59.82,59.82,0,0,0,96.6,106a68.4,68.4,0,0,0-2,12.85C94.59,119.87,94.55,120.9,94.55,122Zm111.08-.45a5.3,5.3,0,0,1-.46.31l0,.08v-.06l-.11.06c0-2.41-.13-4.71-.34-6.94A60.84,60.84,0,0,0,181.91,73.4c-1.12-.9-2.22-1.72-3.29-2.48a67.11,67.11,0,0,0-5.8-3.65A43.33,43.33,0,0,0,168,65c-.33-.15-.64-.31-.95-.47l-.55-.3h0a17.19,17.19,0,0,1-4.42-3.41h0c-.28-.31-.54-.62-.78-.94a14.12,14.12,0,0,1-2.87-8.79h0a18,18,0,0,1,.19-2.46c.05-.36.11-.7.18-1a13.49,13.49,0,0,1,.54-2c6-12.26,19.74-7.13,19.74-7.13,25,11.44,33.26,36.35,33.26,36.35C222.61,107.32,208.72,119.33,205.63,121.52Z" style="fill:#010101"/><path d="M142.63,64.3a4.88,4.88,0,0,0-1.7,1.93.45.45,0,0,0,0,.11.82.82,0,0,0,0,.71.78.78,0,0,0,.66.26,2.27,2.27,0,0,0,.81-.13,5.83,5.83,0,0,0,1.68-.86,7.38,7.38,0,0,0,.72-.6l0,0c.83-.79,1.23-1.63,1-2.08l0,0a.68.68,0,0,0-.4-.24,3,3,0,0,0-1.76.38l-.42.23A6.65,6.65,0,0,0,142.63,64.3Z" style="fill:#fff3b6"/><path d="M157.64,63.74a10.28,10.28,0,0,1,.48,2c0,.13,0,.25,0,.38,0,.39.05.77.05,1.13,0,.16,0,.32,0,.47s0,.5,0,.73v0a11.6,11.6,0,0,1-.35,1.92,38.49,38.49,0,0,1,11.1,2.71l.57.24.14.07.06,0,.07,0-.12-.14c-.73-.79-1.49-1.57-2.26-2.33l-.2-.19-1.46-1.39-.7-.63c-.64-.57-1.27-1.13-1.88-1.65l-.77-.65c-1.25-1-2.37-1.91-3.26-2.6s-1.58-1.18-1.86-1.38l-.16-.12h0l.06.1A8.26,8.26,0,0,1,157.64,63.74Z" style="fill:#f3961f"/><path d="M157.06,73.19h0l.26,0Z" style="fill:#ec8a23"/><path d="M153,79.79l-.1.11c-.32.3-.62.58-.92.83a18.45,18.45,0,0,1-2.22,1.66h.3a14.6,14.6,0,0,0,4.19-.85l.39-.15,1.19-.38,1.73-.58.14,0c2.3-.79,4-1.5,5.14-2,.95-.43,1.5-.71,1.66-.8l.05,0h0c1.32-.64,1.39-1.21,1.15-1.62a1.64,1.64,0,0,0-.54-.52l-.16-.09h0a3.89,3.89,0,0,0-.41-.17,40.11,40.11,0,0,0-5.4-1.5l-1.34-.28-.5-.1-.26,0a13.2,13.2,0,0,1-2.2,4.46A18.32,18.32,0,0,1,153,79.79Z" style="fill:#ec8a23"/><path d="M125.88,67.81a49.57,49.57,0,0,1,7.27-3.57c-49.56,17.13-38.64,57.67-38.64,57.67,0-1,.06-2.06.12-3.08a68.4,68.4,0,0,1,2-12.85,59.82,59.82,0,0,1,12.13-23.76A65.58,65.58,0,0,1,125.88,67.81Z" style="fill:#c1c1c6"/></svg>