
<svg width="100" height="34" viewBox="0 0 100 34" fill="none" xmlns="http://www.w3.org/2000/svg">
<path fill-rule="evenodd" clip-rule="evenodd" d="M21.9257 4.86175C20.2943 4.8296 17.5777 4.31513 15.0903 4.16243C12.9316 4.03023 10.9021 4.20217 9.5037 4.81497C8.12258 5.41813 7.11706 6.49144 6.41626 7.83439C5.70782 9.20425 5.34128 10.8864 4.99369 12.2045C3.53582 17.7454 2.58928 23.4226 1.30139 29.0001C0.967463 30.4238 1.85617 31.8539 3.27988 32.1878C4.71243 32.5214 6.1335 31.624 6.46743 30.2003C7.74889 24.6762 8.68879 19.0438 10.1314 13.5567C10.358 12.6959 10.5576 11.6325 10.9486 10.6846C11.1073 10.2787 11.2383 9.84768 11.6205 9.67971C12.4113 9.34257 13.5562 9.3879 14.7734 9.46546C17.3407 9.62338 20.1459 10.1427 21.8304 10.1724C23.2935 10.2034 24.507 9.03198 24.5291 7.56929C24.56 6.10619 23.3977 4.89229 21.9257 4.86175Z" fill="#F7F7F7"/>
<path fill-rule="evenodd" clip-rule="evenodd" d="M21.22 16.3672C17.2258 16.5842 13.15 16.5656 9.1445 16.5351C7.68221 16.5218 6.47777 17.7017 6.46451 19.1639C6.46049 20.6347 7.63111 21.8305 9.10224 21.8433C13.2143 21.8779 17.405 21.8913 21.5054 21.6695C22.9725 21.5939 24.0936 20.3382 24.0092 18.8715C23.9341 17.4132 22.6783 16.2921 21.22 16.3672Z" fill="#F7F7F7"/>
<path fill-rule="evenodd" clip-rule="evenodd" d="M27.6933 10.676C27.5037 12.1552 27.206 14.3745 27.0963 14.8845C26.1524 19.2593 25.2081 23.6254 24.2104 27.9849C23.8768 29.4174 24.774 30.8383 26.1977 31.1722C27.6299 31.4969 29.0513 30.6084 29.3849 29.1758C30.3903 24.7894 31.3426 20.4053 32.2853 16.004C32.4609 15.1899 33.007 11.6128 33.1477 10.0295C33.2341 9.00684 33.0519 8.31536 32.9812 8.12368C32.7007 7.41002 32.2407 7.03225 31.8581 6.80159C31.0842 6.34068 30.2203 6.23824 29.2679 6.72446C29.1036 6.81166 28.1434 7.32476 27.652 9.18085C27.5158 9.69199 27.539 10.2047 27.6933 10.676Z" fill="#F7F7F7"/>
<path fill-rule="evenodd" clip-rule="evenodd" d="M39.9463 21.3925C43.6508 19.6738 46.3484 15.8748 46.8467 12.415C47.1693 10.1591 46.6304 8.04883 45.1854 6.46679C43.8806 5.04669 41.7497 3.96519 38.445 3.95595C36.7617 3.95274 35.1756 4.52989 33.637 5.17564C31.8641 5.92949 30.0667 6.92364 28.6848 8.28869C27.642 9.3194 27.6388 11.0027 28.6695 12.0455C29.7002 13.0882 31.3835 13.0914 32.4263 12.0607C33.3248 11.1694 34.5376 10.565 35.7021 10.0691C36.5801 9.70143 37.4637 9.26262 38.4385 9.27146C39.9623 9.27307 40.9742 9.51056 41.4154 10.2524C41.7899 10.8909 41.6507 11.73 41.369 12.5489C40.7574 14.2953 39.2586 16.0112 37.3511 16.7269C35.5561 17.3843 33.9306 17.2899 32.0766 17.2324C29.7785 17.1508 29.371 18.9057 29.2753 19.3352C29.1359 19.9705 29.0938 20.9911 30.1188 21.9102C30.2571 22.0279 30.5601 22.2621 31.0206 22.4538C31.3641 22.6065 32.083 22.8308 32.3909 22.9763C33.205 23.3468 34.0389 23.7605 34.7964 24.2487C37.1873 25.7878 39.3993 27.6806 40.9533 30.0992C41.7356 31.3305 43.382 31.6896 44.6129 30.8984C45.8529 30.1156 46.2121 28.4694 45.4208 27.2386C43.971 24.9658 42.0672 23.0324 39.9463 21.3925Z" fill="#F7F7F7"/>
<path fill-rule="evenodd" clip-rule="evenodd" d="M71.8436 3.14465C69.6584 3.01365 66.3363 2.23443 63.294 2.15125C60.6507 2.07651 58.2 2.53339 56.4412 3.79155C54.3649 5.27674 52.9993 7.58899 52.1192 10.2512C51.0536 13.5065 50.7309 17.3215 50.1756 20.1107C49.9092 21.4605 49.5195 23.0195 49.6196 24.4412C49.7112 25.8721 50.2147 27.2048 51.3551 28.3223C52.8753 29.8035 55.009 30.5568 57.3754 30.777C60.1332 31.0326 63.213 30.5736 65.3837 30.3864C66.8484 30.2578 67.9236 28.9688 67.795 27.5041C67.6668 26.0482 66.3774 24.964 64.9216 25.0922C63.2981 25.2368 61.0989 25.5762 58.9804 25.5484C57.4824 25.5279 55.9983 25.427 55.0624 24.5216C54.7473 24.217 54.8956 23.7762 54.9478 23.3663C55.0463 22.6088 55.2505 21.8377 55.3871 21.1405C55.8267 18.9236 56.0939 16.0324 56.7597 13.3356C57.2757 11.2393 57.9724 9.22324 59.5255 8.11617C60.7523 7.23655 62.6278 7.37286 64.496 7.54485C67.0846 7.78153 69.7141 8.33516 71.5437 8.43803C73.0004 8.52241 74.2606 7.40216 74.345 5.94549C74.4289 4.47999 73.3091 3.22863 71.8436 3.14465Z" fill="#F7F7F7"/>
<path fill-rule="evenodd" clip-rule="evenodd" d="M68.2921 14.0847C64.2492 13.8167 60.1866 14.0899 56.1417 14.1675C54.6811 14.1896 53.5137 15.4033 53.5362 16.8728C53.5671 18.3331 54.7806 19.5005 56.2409 19.4695C60.1355 19.3988 64.0564 19.1231 67.9482 19.3803C69.4053 19.4735 70.6745 18.3615 70.7677 16.9045C70.8605 15.4386 69.758 14.1775 68.2921 14.0847Z" fill="#F7F7F7"/>
<path fill-rule="evenodd" clip-rule="evenodd" d="M79.4603 22.7118C79.476 22.4719 79.5111 22.0716 79.5617 21.8213C79.7265 20.9634 79.9635 20.1376 80.035 19.5674C80.3432 17.383 80.635 14.6413 81.2976 12.0687C81.8477 9.94423 82.6059 7.91659 84.0815 6.66246C84.4652 6.33496 85.0093 6.22162 85.6077 6.13242C86.566 5.97369 87.6466 5.96889 88.7384 6.01671C91.4448 6.11516 94.2063 6.45017 95.9326 6.22996C97.3861 6.04873 98.4152 4.71746 98.2339 3.26401C98.0439 1.81097 96.7126 0.78186 95.2591 0.963089C93.3922 1.20741 90.1598 0.645662 87.2915 0.687453C84.6088 0.720806 82.1901 1.30033 80.6462 2.61072C78.8038 4.17387 77.5331 6.42857 76.6744 8.97461C75.5911 12.2307 75.1849 15.961 74.7839 18.8317C74.6284 19.893 74.0329 21.7981 74.1442 23.2724C74.2386 24.5703 74.7313 25.6641 75.6173 26.4477C77.2138 27.8545 79.3443 28.5373 81.6738 28.7238C84.4212 28.9444 87.4553 28.4609 89.6955 28.2439C91.1598 28.1064 92.226 26.809 92.0886 25.3447C91.9515 23.8892 90.6537 22.8142 89.1986 22.9601C87.5049 23.1168 85.3156 23.4821 83.198 23.4721C81.8249 23.4725 80.4653 23.3836 79.4603 22.7118Z" fill="#F7F7F7"/>
<path fill-rule="evenodd" clip-rule="evenodd" d="M94.1889 13.147C89.7554 13.0561 85.3831 12.9449 80.9637 13.1635C79.4966 13.239 78.3662 14.4864 78.4418 15.9535C78.5169 17.4117 79.764 18.5421 81.2311 18.4666C85.5268 18.2536 89.775 18.3616 94.0754 18.4496C95.5385 18.4805 96.7527 17.3182 96.7836 15.8551C96.8141 14.3832 95.6516 13.1691 94.1889 13.147Z" fill="#F7F7F7"/>
</svg>
