<svg width="67" height="67" viewBox="0 0 67 67" fill="none" xmlns="http://www.w3.org/2000/svg">
<path fill-rule="evenodd" clip-rule="evenodd" d="M15.4387 37.2096C15.1847 36.9603 14.9288 36.7109 14.671 36.4633C12.0431 33.9443 9.43568 31.4225 6.98925 28.7211C6.39649 28.0669 5.28354 26.7977 4.16595 26.1444C3.3666 25.6773 2.5393 25.4819 1.78276 25.5787C1.30073 25.6401 0.596332 25.883 0.242721 26.807C0.183165 26.9624 0.112459 27.2294 0.0845424 27.57C0.0398757 28.1209 0.0835905 29.1092 0.0975488 29.246C0.292965 31.2392 0.488375 33.145 0.846639 35.1169C1.17606 36.9314 1.40124 38.76 1.75578 40.5718C2.2862 43.2825 2.96925 45.8917 3.96494 48.4731C4.33437 49.4316 5.41289 49.9089 6.37136 49.5395C7.3289 49.1701 7.8072 48.0925 7.43777 47.1341C6.52117 44.7565 5.89678 42.3538 5.40917 39.8571C5.05742 38.0621 4.835 36.2493 4.50837 34.4515C4.29621 33.2818 4.14544 32.1363 4.01703 30.9805L4.23013 31.2196C6.73611 33.9862 9.40404 36.5704 12.0952 39.1499C13.1021 40.1158 14.0745 41.1096 15.0972 42.0597C15.18 42.1807 15.5624 42.7353 15.7504 42.9251C16.0631 43.2415 16.4009 43.4183 16.6949 43.5058C17.4422 43.7291 18.2006 43.6463 18.8631 42.8088C19.3591 42.1816 19.6448 41.2092 19.6234 40.0478C19.5945 38.4519 18.9888 36.348 18.8604 35.3784C18.0471 29.2432 16.7313 23.1322 16.3814 16.944C16.3237 15.9186 15.4443 15.1332 14.4188 15.1909C13.3933 15.2495 12.607 16.1288 12.6656 17.1543C13.0202 23.4356 14.3444 29.6396 15.1698 35.8678C15.2144 36.1991 15.3205 36.6709 15.4387 37.2096Z" fill="black"/>
<path fill-rule="evenodd" clip-rule="evenodd" d="M31.7006 11.7781C29.5901 12.3374 27.4759 12.825 25.7804 14.2748C24.0068 15.7926 23.1051 17.9971 22.784 20.4537C22.3746 23.5878 22.9236 27.1435 23.2642 29.6774C23.441 30.9895 23.5164 32.818 23.8988 34.4381C24.2283 35.8312 24.7894 37.079 25.6445 37.9528C26.9883 39.3254 29.0504 39.464 31.1655 38.6079C33.6092 37.6187 36.0426 35.3361 36.7042 34.0054C37.162 33.086 36.787 31.9675 35.8667 31.5106C34.9473 31.0528 33.8297 31.4278 33.3719 32.3472C32.9522 33.1912 31.3191 34.5302 29.7688 35.1584C29.4226 35.2979 29.0802 35.4021 28.7563 35.4282C28.5879 35.4422 28.4195 35.4664 28.305 35.35C27.7439 34.7759 27.5466 33.8426 27.3838 32.8999C27.1558 31.586 27.0925 30.2134 26.9538 29.1805C26.6486 26.9146 26.1089 23.7386 26.4746 20.9358C26.671 19.4329 27.1148 18.0324 28.2008 17.1037C29.4608 16.0262 31.0836 15.7926 32.6535 15.3766C33.6464 15.1142 34.2392 14.0943 33.9758 13.1014C33.7134 12.1085 32.6935 11.5157 31.7006 11.7781Z" fill="black"/>
<path fill-rule="evenodd" clip-rule="evenodd" d="M31.5579 21.5849C29.9229 22.4755 28.1754 23.3911 26.4231 24.0202C25.4563 24.3673 24.9528 25.4337 25.299 26.4006C25.6461 27.3674 26.7125 27.8708 27.6793 27.5237C29.6093 26.8314 31.5383 25.8348 33.338 24.8549C34.2398 24.3636 34.5738 23.232 34.0825 22.3303C33.5911 21.4276 32.4606 21.0945 31.5579 21.5849Z" fill="black"/>
<path fill-rule="evenodd" clip-rule="evenodd" d="M54.0349 22.5729C52.6763 20.9296 51.2405 19.3123 49.7237 17.8346C49.5999 17.7145 48.0701 16.4545 47.1609 15.9837C46.5477 15.6663 46.0042 15.6087 45.686 15.6394C44.7601 15.7287 44.1952 16.2303 43.9635 17.0882C43.7421 17.9109 43.6621 18.7679 43.6621 19.6426C42.2858 17.0622 41.0267 14.4083 40.2618 11.6138C40.1985 11.383 40.1473 11.2751 40.139 11.2555C39.8812 10.686 39.5155 10.4924 39.3852 10.4161C38.745 10.0402 38.168 10.1035 37.6814 10.3222C37.6218 10.3482 36.3097 10.9308 36.6233 12.4187C36.6484 12.5388 36.8625 13.3939 36.9248 13.728C36.9797 14.0183 37.0988 14.2798 37.2654 14.5013C38.5477 18.1844 40.5093 21.6638 42.3919 25.0612C42.7985 25.7954 43.1158 26.552 43.3252 27.3643C43.3866 27.6016 43.4117 28.1386 43.4657 28.4019C43.5578 28.8476 43.7402 29.1463 43.8565 29.2989C44.4614 30.0936 45.2068 30.1746 45.8944 29.9709C46.1885 29.8843 46.7775 29.6861 47.1358 28.8328C47.9416 26.9158 47.8505 24.7988 47.6169 22.666C47.548 22.035 47.4625 21.4041 47.4103 20.7807C49.0658 22.4259 50.6151 24.2405 52.0715 26.0541C52.2315 26.2532 53.8526 28.066 54.2834 28.3358C55.361 29.0133 56.1976 28.5043 56.5558 28.2009C57.1021 27.7375 57.532 26.9419 57.7069 25.9285C57.9321 24.6174 57.7544 22.813 57.7367 22.0871C57.6185 17.2017 57.4417 12.0949 56.3446 7.32486C56.1147 6.32358 55.1153 5.69821 54.114 5.92806C53.1128 6.1579 52.4875 7.15828 52.7173 8.15863C53.7586 12.6886 53.9028 17.5396 54.0154 22.1775C54.0182 22.2845 54.0256 22.4185 54.0349 22.5729Z" fill="black"/>
<path fill-rule="evenodd" clip-rule="evenodd" d="M61.4716 6.08726C62.1462 9.34886 62.8218 12.5807 63.2629 15.9344C63.3969 16.9533 64.332 17.6717 65.351 17.5377C66.369 17.4037 67.0875 16.4685 66.9535 15.4496C66.3319 10.7195 65.2561 6.22871 64.3554 1.5629C64.0083 -0.240516 62.2942 0.0116897 62.189 0.0303008C61.9573 0.0712452 60.6946 0.340173 60.6527 1.81883C60.6499 1.90909 60.7104 2.5474 60.7206 2.79493C60.7429 3.36164 60.7317 3.91535 60.7029 4.48298C60.6694 5.13716 60.9774 5.72993 61.4716 6.08726Z" fill="black"/>
<path fill-rule="evenodd" clip-rule="evenodd" d="M66.2883 25.3208C66.4772 24.7457 66.3813 24.0888 65.9756 23.5797C65.3344 22.7767 64.1628 22.6455 63.3598 23.2866C62.6181 23.8784 62.4795 24.5996 62.579 25.4818C62.6944 26.5026 63.6175 27.2377 64.6384 27.1214C65.5717 27.0163 66.2659 26.2346 66.2883 25.3208Z" fill="black"/>
<path fill-rule="evenodd" clip-rule="evenodd" d="M31.1552 61.2217C30.9653 60.8197 30.8127 60.5023 30.7765 60.4344C29.0475 57.2007 27.1715 54.0098 25.1289 50.9641C24.5566 50.1108 23.3999 49.8828 22.5466 50.4551C21.6933 51.0274 21.4653 52.1841 22.0376 53.0374C24.0113 55.9798 25.8231 59.0647 27.4944 62.1895C27.6218 62.4277 28.4715 64.5447 29.0782 65.4278C29.6281 66.2271 30.3186 66.5128 30.7141 66.5714C31.3422 66.6645 32.3249 66.4393 33.1224 65.3747C34.1637 63.9854 35.5139 60.2734 35.7363 59.6574C36.1439 58.524 36.4891 57.3347 36.8092 56.1781C37.4159 53.9838 37.7649 51.7505 38.0766 49.5004C38.2181 48.4823 37.5062 47.5425 36.4882 47.4011C35.4711 47.2605 34.5303 47.9724 34.3898 48.9895C34.1004 51.0768 33.7849 53.15 33.2219 55.1851C32.926 56.2525 32.6096 57.3515 32.2337 58.3974C32.1202 58.711 31.6791 60.0063 31.1552 61.2217Z" fill="black"/>
</svg>
