<?xml version="1.0" standalone="no"?>
<!DOCTYPE svg PUBLIC "-//W3C//DTD SVG 20010904//EN"
 "http://www.w3.org/TR/2001/REC-SVG-20010904/DTD/svg10.dtd">
<svg version="1.0" xmlns="http://www.w3.org/2000/svg"
 width="600.000000pt" height="600.000000pt" viewBox="0 0 600.000000 600.000000"
 preserveAspectRatio="xMidYMid meet">
<metadata>
Created by potrace 1.14, written by Peter Selinger 2001-2017
</metadata>
<g transform="translate(0.000000,600.000000) scale(0.100000,-0.100000)"
fill="#000000" stroke="none">
<path d="M2735 5969 c-256 -24 -548 -90 -782 -175 -279 -103 -616 -295 -858
-489 -134 -107 -341 -315 -449 -450 -322 -405 -515 -828 -617 -1355 -20 -101
-23 -155 -27 -456 -3 -276 -1 -363 13 -460 118 -867 623 -1645 1377 -2120 126
-79 410 -220 538 -268 666 -244 1365 -258 2025 -41 1065 350 1849 1262 2030
2360 14 85 16 164 12 520 -4 409 -4 423 -30 540 -35 159 -80 316 -124 434
-393 1054 -1319 1791 -2444 1946 -138 19 -526 27 -664 14z m-491 -489 c107
-27 169 -63 252 -145 118 -117 163 -243 151 -429 -14 -235 -166 -431 -409
-527 -155 -61 -368 -192 -544 -335 -107 -87 -290 -269 -370 -369 -236 -296
-414 -675 -488 -1035 -29 -145 -56 -365 -56 -463 0 -67 0 -68 -23 -56 -36 20
-160 150 -204 214 -240 357 -282 850 -123 1470 60 238 133 406 275 639 205
338 472 619 790 831 160 107 327 190 420 209 104 21 237 20 329 -4z m1838 5
c88 -19 147 -45 298 -133 337 -195 677 -530 893 -880 175 -283 257 -488 326
-818 45 -213 55 -312 55 -519 0 -213 -15 -325 -66 -485 -58 -182 -140 -323
-258 -441 -121 -123 -116 -125 -123 49 -26 618 -299 1218 -754 1652 -204 194
-504 398 -693 470 -67 25 -190 104 -242 154 -69 68 -124 155 -151 241 -30 94
-30 270 0 361 54 164 210 307 381 348 78 19 245 19 334 1z m-1023 -845 c47
-13 234 -140 386 -263 119 -96 350 -306 343 -312 -2 -2 -48 12 -103 31 -213
71 -541 113 -780 99 -230 -13 -465 -55 -612 -111 -35 -13 -63 -20 -63 -16 0 9
185 182 289 270 147 126 385 292 437 305 33 8 68 7 103 -3z m171 -566 c53 -8
147 -27 210 -43 242 -60 255 -86 85 -167 -155 -73 -408 -155 -501 -161 -79 -6
-84 -4 -277 61 -108 36 -233 84 -277 106 -128 64 -127 95 6 135 280 86 510
107 754 69z m1442 -694 c86 -127 186 -328 233 -470 30 -90 85 -305 85 -335 0
-18 -101 90 -170 180 -89 118 -157 238 -219 390 -46 111 -121 347 -121 379 0
7 12 17 28 23 24 9 30 7 60 -26 18 -20 65 -83 104 -141z m-3154 90 c111 -48
274 -98 437 -135 126 -28 421 -74 490 -76 l40 -1 -50 -9 c-151 -26 -694 -28
-885 -4 -138 18 -267 38 -278 44 -16 9 125 221 147 221 3 0 48 -18 99 -40z
m2833 -116 c116 -414 343 -780 594 -960 l65 -46 0 -111 c0 -102 -16 -286 -26
-296 -8 -9 -171 110 -246 179 -308 284 -485 704 -491 1162 -1 82 -4 147 -7
145 -3 -1 -84 -54 -180 -119 -291 -193 -543 -325 -862 -452 -680 -269 -1469
-380 -2135 -300 l-53 6 0 38 c0 53 50 245 96 369 l39 103 35 -5 c19 -3 96 -16
170 -27 192 -31 671 -39 918 -16 303 29 611 87 905 170 87 25 197 48 257 55
220 25 544 102 800 189 47 16 86 28 88 27 1 -1 16 -51 33 -111z m-210 -524
c103 -419 367 -788 722 -1010 48 -30 87 -61 87 -67 0 -36 -80 -247 -144 -378
-199 -406 -524 -729 -931 -926 -565 -274 -1190 -275 -1755 -3 -409 197 -736
522 -935 929 -145 295 -204 547 -205 869 l0 159 37 -7 c193 -31 734 -32 993
-2 696 82 1381 318 1995 688 l80 48 18 -108 c9 -59 27 -145 38 -192z"/>
<path d="M2135 5155 c-74 -40 -99 -85 -93 -169 5 -76 30 -116 94 -146 120 -59
254 26 254 159 0 63 -18 101 -66 138 -46 34 -141 44 -189 18z"/>
<path d="M3734 5170 c-110 -26 -167 -156 -111 -255 53 -93 158 -117 257 -58
73 43 99 158 53 233 -37 61 -129 97 -199 80z"/>
<path d="M1765 2051 c-151 -39 -235 -212 -168 -346 77 -153 277 -188 397 -69
49 50 70 102 70 174 0 72 -16 114 -68 168 -57 62 -156 93 -231 73z"/>
<path d="M4075 2051 c-113 -29 -189 -125 -189 -241 0 -97 49 -175 139 -223 55
-29 155 -29 210 0 90 48 139 127 139 223 0 72 -16 114 -68 168 -57 62 -156 93
-231 73z"/>
<path d="M2430 1363 c-61 -20 -90 -57 -90 -113 0 -50 28 -86 128 -171 261
-218 567 -278 826 -160 113 51 246 153 318 244 29 37 38 58 38 87 0 71 -74
129 -140 110 -20 -6 -66 -42 -114 -88 -148 -143 -249 -187 -406 -179 -148 7
-275 68 -415 198 -41 38 -81 69 -89 69 -8 0 -20 2 -28 4 -7 3 -20 2 -28 -1z"/>
</g>
</svg>
